<svg width="107" height="107" viewBox="0 0 107 107" fill="none" xmlns="http://www.w3.org/2000/svg">
<mask id="mask0_5_1088" style="mask-type:alpha" maskUnits="userSpaceOnUse" x="0" y="0" width="107" height="107">
<rect x="0.965088" y="0.965088" width="106.035" height="106.035" fill="#D9D9D9"/>
</mask>
<g mask="url(#mask0_5_1088)">
<path d="M53.9827 102.582L22.1722 78.7241C21.0677 77.9141 20.2024 76.8832 19.5765 75.6314C18.9506 74.3796 18.6377 73.0542 18.6377 71.6551V18.6376C18.6377 16.2077 19.5029 14.1275 21.2333 12.397C22.9638 10.6666 25.044 9.80139 27.4739 9.80139H80.4914C82.9214 9.80139 85.0016 10.6666 86.732 12.397C88.4624 14.1275 89.3276 16.2077 89.3276 18.6376V71.6551C89.3276 73.0542 89.0147 74.3796 88.3888 75.6314C87.7629 76.8832 86.8977 77.9141 85.7931 78.7241L53.9827 102.582ZM53.9827 91.5366L80.4914 71.6551V18.6376H27.4739V71.6551L53.9827 91.5366ZM49.3436 67.237L74.306 42.2746L68.1207 35.8683L49.3436 54.6453L40.0656 45.3673L33.6593 51.5526L49.3436 67.237Z" fill="#00E766"/>
</g>
</svg>
