<svg width="190" height="54" viewBox="0 0 190 54" fill="none" xmlns="http://www.w3.org/2000/svg">
<path d="M135.567 45.423H134.458V41.6353H135.635C135.997 41.6353 136.304 41.7093 136.562 41.8602C136.82 42.011 137.015 42.2249 137.152 42.5075C137.289 42.79 137.358 43.1246 137.358 43.5195C137.358 43.9145 137.286 44.2573 137.146 44.5399C137.007 44.8251 136.804 45.0418 136.538 45.1926C136.271 45.3435 135.948 45.4203 135.567 45.4203V45.423ZM134.804 45.1131H135.547C135.874 45.1131 136.145 45.05 136.365 44.9211C136.584 44.7922 136.749 44.6112 136.858 44.3725C136.968 44.1339 137.023 43.8514 137.023 43.5223C137.023 43.1959 136.968 42.9134 136.861 42.6803C136.754 42.4471 136.598 42.2634 136.387 42.1372C136.178 42.011 135.92 41.9479 135.613 41.9479H134.804V45.1131Z" fill="#025AFF"/>
<path d="M139.272 45.4807C139.006 45.4807 138.779 45.4176 138.584 45.2942C138.389 45.1708 138.241 44.998 138.137 44.7786C138.032 44.5592 137.978 44.3041 137.978 44.0188C137.978 43.7336 138.03 43.4785 138.137 43.2563C138.244 43.0342 138.389 42.8586 138.576 42.7325C138.762 42.6063 138.979 42.5432 139.223 42.5432C139.376 42.5432 139.525 42.5706 139.667 42.6282C139.81 42.6831 139.939 42.7709 140.054 42.8861C140.169 43.0013 140.26 43.1466 140.326 43.3194C140.391 43.495 140.424 43.7007 140.424 43.9365V44.0984H138.205V43.8076H140.087C140.087 43.6239 140.051 43.462 139.977 43.3139C139.903 43.1658 139.802 43.0534 139.673 42.9683C139.544 42.8833 139.393 42.8394 139.223 42.8394C139.042 42.8394 138.885 42.8888 138.748 42.9848C138.611 43.0808 138.504 43.207 138.427 43.366C138.351 43.5251 138.312 43.6952 138.309 43.8844V44.0572C138.309 44.2821 138.348 44.4796 138.427 44.6469C138.507 44.8142 138.617 44.9459 138.762 45.0391C138.907 45.1324 139.078 45.179 139.275 45.179C139.409 45.179 139.527 45.1571 139.629 45.1159C139.73 45.0748 139.815 45.0172 139.887 44.9459C139.955 44.8746 140.01 44.7978 140.046 44.7128L140.358 44.8142C140.315 44.9349 140.246 45.0446 140.147 45.1461C140.048 45.2476 139.928 45.3271 139.782 45.3902C139.637 45.4506 139.467 45.4807 139.278 45.4807H139.272Z" fill="#025AFF"/>
<path d="M143.055 43.2043L142.753 43.2893C142.723 43.2043 142.682 43.1275 142.627 43.0589C142.572 42.9904 142.501 42.9355 142.416 42.8944C142.328 42.8532 142.221 42.834 142.092 42.834C141.9 42.834 141.741 42.8806 141.617 42.9712C141.494 43.0617 141.434 43.1796 141.434 43.325C141.434 43.4457 141.475 43.5471 141.56 43.6212C141.645 43.698 141.774 43.7583 141.952 43.8022L142.38 43.9064C142.619 43.964 142.797 44.0573 142.915 44.1807C143.033 44.3069 143.093 44.4632 143.093 44.6552C143.093 44.8143 143.049 44.9569 142.959 45.0831C142.871 45.2065 142.748 45.3053 142.588 45.3766C142.429 45.4479 142.246 45.4835 142.037 45.4835C141.76 45.4835 141.532 45.4205 141.351 45.297C141.17 45.1736 141.055 44.9898 141.006 44.754L141.321 44.6772C141.362 44.8472 141.442 44.9734 141.56 45.0612C141.678 45.1462 141.837 45.1901 142.032 45.1901C142.251 45.1901 142.424 45.1407 142.555 45.042C142.687 44.9432 142.75 44.8198 142.75 44.6744C142.75 44.5592 142.712 44.4632 142.635 44.3864C142.558 44.3096 142.443 44.2493 142.287 44.2136L141.823 44.1039C141.576 44.0436 141.395 43.9503 141.275 43.8242C141.157 43.6953 141.096 43.5362 141.096 43.3469C141.096 43.1906 141.137 43.0534 141.222 42.9328C141.307 42.8148 141.425 42.7216 141.574 42.653C141.722 42.5844 141.892 42.5515 142.084 42.5515C142.344 42.5515 142.553 42.6091 142.709 42.7271C142.865 42.845 142.978 43.0068 143.046 43.2125L143.055 43.2043Z" fill="#025AFF"/>
<path d="M144.964 45.4807C144.698 45.4807 144.47 45.4176 144.275 45.2942C144.081 45.1708 143.932 44.998 143.828 44.7786C143.724 44.5592 143.669 44.3041 143.669 44.0188C143.669 43.7336 143.721 43.4785 143.828 43.2563C143.935 43.0342 144.081 42.8586 144.267 42.7325C144.454 42.6063 144.67 42.5432 144.914 42.5432C145.068 42.5432 145.216 42.5706 145.359 42.6282C145.501 42.6831 145.63 42.7709 145.746 42.8861C145.861 43.0013 145.951 43.1466 146.017 43.3194C146.083 43.495 146.116 43.7007 146.116 43.9365V44.0984H143.897V43.8076H145.778C145.778 43.6239 145.743 43.462 145.669 43.3139C145.595 43.1658 145.493 43.0534 145.364 42.9683C145.235 42.8833 145.084 42.8394 144.914 42.8394C144.733 42.8394 144.577 42.8888 144.44 42.9848C144.303 43.0808 144.196 43.207 144.119 43.366C144.042 43.5251 144.004 43.6952 144.001 43.8844V44.0572C144.001 44.2821 144.039 44.4796 144.119 44.6469C144.199 44.8142 144.308 44.9459 144.454 45.0391C144.599 45.1324 144.769 45.179 144.967 45.179C145.101 45.179 145.219 45.1571 145.32 45.1159C145.422 45.0748 145.507 45.0172 145.578 44.9459C145.647 44.8746 145.702 44.7978 145.737 44.7128L146.05 44.8142C146.006 44.9349 145.938 45.0446 145.839 45.1461C145.74 45.2476 145.619 45.3271 145.474 45.3902C145.329 45.4506 145.159 45.4807 144.969 45.4807H144.964Z" fill="#025AFF"/>
<path d="M147.169 43.6458V45.4204H146.84V42.5816H147.161V43.0259H147.191C147.257 42.8806 147.361 42.7626 147.504 42.6749C147.644 42.5871 147.819 42.5432 148.028 42.5432C148.22 42.5432 148.387 42.5844 148.532 42.6612C148.678 42.7407 148.79 42.8586 148.87 43.0122C148.949 43.1658 148.99 43.3551 148.99 43.58V45.4204H148.661V43.6019C148.661 43.3688 148.595 43.185 148.467 43.0479C148.338 42.9135 148.162 42.8449 147.945 42.8449C147.797 42.8449 147.663 42.8778 147.548 42.9409C147.432 43.004 147.339 43.0973 147.273 43.2179C147.205 43.3386 147.172 43.4812 147.172 43.6458H147.169Z" fill="#025AFF"/>
<path d="M151.953 42.5817L150.916 45.4204H150.565L149.528 42.5817H149.885L150.727 44.9871H150.751L151.593 42.5817H151.95H151.953Z" fill="#025AFF"/>
<path d="M153.593 45.4807C153.349 45.4807 153.132 45.4176 152.943 45.2942C152.754 45.1708 152.608 44.998 152.501 44.7786C152.394 44.5592 152.342 44.3041 152.342 44.0161C152.342 43.7281 152.394 43.4703 152.501 43.2481C152.608 43.0259 152.754 42.8531 152.943 42.7297C153.132 42.6063 153.349 42.5432 153.593 42.5432C153.837 42.5432 154.054 42.6063 154.243 42.7297C154.43 42.8531 154.578 43.0259 154.685 43.2481C154.792 43.4675 154.844 43.7253 154.844 44.0161C154.844 44.3068 154.792 44.5592 154.685 44.7786C154.578 44.998 154.432 45.1708 154.243 45.2942C154.054 45.4176 153.837 45.4807 153.593 45.4807ZM153.593 45.179C153.791 45.179 153.958 45.1269 154.095 45.0199C154.232 44.913 154.336 44.7731 154.408 44.5976C154.479 44.422 154.515 44.2273 154.515 44.0161C154.515 43.8049 154.479 43.6102 154.408 43.4319C154.336 43.2536 154.232 43.111 154.095 43.004C153.958 42.897 153.791 42.8422 153.593 42.8422C153.396 42.8422 153.231 42.897 153.094 43.004C152.957 43.111 152.852 43.2536 152.781 43.4319C152.71 43.6102 152.674 43.8049 152.674 44.0161C152.674 44.2273 152.71 44.422 152.781 44.5976C152.852 44.7731 152.957 44.9157 153.094 45.0199C153.231 45.1242 153.398 45.179 153.596 45.179H153.593Z" fill="#025AFF"/>
<path d="M155.894 41.6354V45.4232H155.565V41.6354H155.894Z" fill="#025AFF"/>
<path d="M158.964 42.5817L157.927 45.4204H157.576L156.539 42.5817H156.896L157.738 44.9871H157.762L158.604 42.5817H158.961H158.964Z" fill="#025AFF"/>
<path d="M159.776 42.0935C159.71 42.0935 159.652 42.0715 159.603 42.0249C159.553 41.9783 159.529 41.9234 159.529 41.8576C159.529 41.7918 159.553 41.7369 159.603 41.6903C159.652 41.6436 159.71 41.6217 159.776 41.6217C159.841 41.6217 159.902 41.6436 159.951 41.6903C160.001 41.7369 160.025 41.7918 160.025 41.8576C160.025 41.9234 160.001 41.9783 159.951 42.0249C159.902 42.0715 159.844 42.0935 159.776 42.0935ZM159.608 45.4205V42.5817H159.94V45.4205H159.608Z" fill="#025AFF"/>
<path d="M160.812 45.4231V42.5844H161.133V43.0205H161.164C161.221 42.8751 161.314 42.7572 161.446 42.6749C161.578 42.5926 161.737 42.5487 161.923 42.5487C162.118 42.5487 162.28 42.5953 162.406 42.6858C162.532 42.7764 162.628 42.9025 162.689 43.0643H162.713C162.776 42.9053 162.881 42.7818 163.026 42.6886C163.171 42.5953 163.347 42.5487 163.553 42.5487C163.816 42.5487 164.024 42.631 164.178 42.7983C164.332 42.9656 164.408 43.207 164.408 43.5251V45.4286H164.079V43.5251C164.079 43.3002 164.022 43.1329 163.906 43.0205C163.791 42.908 163.64 42.8532 163.454 42.8532C163.237 42.8532 163.07 42.919 162.952 43.0534C162.834 43.1878 162.776 43.3551 162.776 43.5608V45.4286H162.439V43.4977C162.439 43.3057 162.384 43.1494 162.277 43.0314C162.17 42.9135 162.019 42.8532 161.825 42.8532C161.693 42.8532 161.578 42.8861 161.473 42.9491C161.369 43.0122 161.287 43.1027 161.227 43.2152C161.166 43.3304 161.136 43.4593 161.136 43.6074V45.4259H160.807L160.812 45.4231Z" fill="#025AFF"/>
<path d="M166.427 45.4807C166.161 45.4807 165.933 45.4176 165.739 45.2942C165.544 45.1708 165.396 44.998 165.292 44.7786C165.187 44.5592 165.133 44.3041 165.133 44.0188C165.133 43.7336 165.185 43.4785 165.292 43.2563C165.399 43.0342 165.544 42.8586 165.731 42.7325C165.917 42.6063 166.134 42.5432 166.378 42.5432C166.531 42.5432 166.68 42.5706 166.822 42.6282C166.965 42.6831 167.094 42.7709 167.209 42.8861C167.324 43.0013 167.415 43.1466 167.48 43.3194C167.546 43.495 167.579 43.7007 167.579 43.9365V44.0984H165.36V43.8076H167.242C167.242 43.6239 167.206 43.462 167.132 43.3139C167.058 43.1658 166.957 43.0534 166.828 42.9683C166.699 42.8833 166.548 42.8394 166.378 42.8394C166.197 42.8394 166.04 42.8888 165.903 42.9848C165.766 43.0808 165.659 43.207 165.582 43.366C165.506 43.5251 165.467 43.6952 165.464 43.8844V44.0572C165.464 44.2821 165.503 44.4796 165.582 44.6469C165.662 44.8142 165.772 44.9459 165.917 45.0391C166.062 45.1324 166.232 45.179 166.43 45.179C166.564 45.179 166.682 45.1571 166.784 45.1159C166.885 45.0748 166.97 45.0172 167.042 44.9459C167.11 44.8746 167.165 44.7978 167.201 44.7128L167.513 44.8142C167.47 44.9349 167.401 45.0446 167.302 45.1461C167.203 45.2476 167.083 45.3271 166.937 45.3902C166.792 45.4506 166.622 45.4807 166.433 45.4807H166.427Z" fill="#025AFF"/>
<path d="M168.633 43.6458V45.4204H168.303V42.5816H168.624V43.0259H168.655C168.72 42.8806 168.825 42.7626 168.967 42.6749C169.107 42.5871 169.283 42.5432 169.491 42.5432C169.683 42.5432 169.85 42.5844 169.996 42.6612C170.141 42.7407 170.254 42.8586 170.333 43.0122C170.413 43.1658 170.454 43.3551 170.454 43.58V45.4204H170.125V43.6019C170.125 43.3688 170.059 43.185 169.93 43.0479C169.801 42.9135 169.626 42.8449 169.409 42.8449C169.261 42.8449 169.126 42.8778 169.011 42.9409C168.896 43.004 168.803 43.0973 168.737 43.2179C168.668 43.3386 168.635 43.4812 168.635 43.6458H168.633Z" fill="#025AFF"/>
<path d="M172.44 42.5816V42.8696H171.085V42.5816H172.44ZM171.507 41.9014H171.839V44.6798C171.839 44.7977 171.858 44.891 171.899 44.9568C171.941 45.0254 171.993 45.072 172.059 45.0994C172.124 45.1269 172.193 45.1406 172.267 45.1406C172.311 45.1406 172.346 45.1378 172.377 45.1324C172.407 45.1269 172.434 45.1214 172.459 45.1159L172.53 45.4149C172.497 45.4258 172.459 45.4396 172.412 45.4478C172.366 45.4587 172.308 45.4642 172.24 45.4642C172.119 45.4642 172.004 45.4368 171.891 45.3847C171.779 45.3326 171.688 45.253 171.617 45.1488C171.546 45.0446 171.51 44.9129 171.51 44.7593V41.9041L171.507 41.9014Z" fill="#025AFF"/>
<path d="M174.261 45.4807C174.017 45.4807 173.8 45.4176 173.611 45.2942C173.422 45.1708 173.276 44.998 173.169 44.7786C173.062 44.5592 173.01 44.3041 173.01 44.0161C173.01 43.7281 173.062 43.4703 173.169 43.2481C173.276 43.0259 173.422 42.8531 173.611 42.7297C173.8 42.6063 174.017 42.5432 174.261 42.5432C174.505 42.5432 174.722 42.6063 174.911 42.7297C175.098 42.8531 175.246 43.0259 175.353 43.2481C175.46 43.4675 175.512 43.7253 175.512 44.0161C175.512 44.3068 175.46 44.5592 175.353 44.7786C175.246 44.998 175.1 45.1708 174.911 45.2942C174.722 45.4176 174.505 45.4807 174.261 45.4807ZM174.261 45.179C174.459 45.179 174.626 45.1269 174.763 45.0199C174.9 44.913 175.004 44.7731 175.076 44.5976C175.147 44.422 175.183 44.2273 175.183 44.0161C175.183 43.8049 175.147 43.6102 175.076 43.4319C175.004 43.2536 174.9 43.111 174.763 43.004C174.626 42.897 174.459 42.8422 174.261 42.8422C174.064 42.8422 173.899 42.897 173.762 43.004C173.625 43.111 173.52 43.2536 173.449 43.4319C173.378 43.6102 173.342 43.8049 173.342 44.0161C173.342 44.2273 173.378 44.422 173.449 44.5976C173.52 44.7731 173.625 44.9157 173.762 45.0199C173.899 45.1242 174.066 45.179 174.264 45.179H174.261Z" fill="#025AFF"/>
<path d="M178.329 45.4231L177.47 42.5844H177.819L178.491 44.9267H178.515L179.187 42.5844H179.536L180.202 44.9212H180.227L180.899 42.5844H181.247L180.389 45.4231H180.049L179.377 43.0945H179.341L178.669 45.4231H178.329Z" fill="#025AFF"/>
<path d="M182.94 45.4807C182.674 45.4807 182.446 45.4176 182.251 45.2942C182.056 45.1708 181.908 44.998 181.804 44.7786C181.7 44.5592 181.645 44.3041 181.645 44.0188C181.645 43.7336 181.697 43.4785 181.804 43.2563C181.911 43.0342 182.056 42.8586 182.243 42.7325C182.43 42.6063 182.646 42.5432 182.89 42.5432C183.044 42.5432 183.192 42.5706 183.335 42.6282C183.477 42.6831 183.606 42.7709 183.721 42.8861C183.837 43.0013 183.927 43.1466 183.993 43.3194C184.059 43.495 184.092 43.7007 184.092 43.9365V44.0984H181.873V43.8076H183.754C183.754 43.6239 183.719 43.462 183.645 43.3139C183.571 43.1658 183.469 43.0534 183.34 42.9683C183.211 42.8833 183.06 42.8394 182.89 42.8394C182.709 42.8394 182.553 42.8888 182.416 42.9848C182.279 43.0808 182.172 43.207 182.095 43.366C182.018 43.5251 181.98 43.6952 181.977 43.8844V44.0572C181.977 44.2821 182.015 44.4796 182.095 44.6469C182.174 44.8142 182.284 44.9459 182.429 45.0391C182.575 45.1324 182.745 45.179 182.942 45.179C183.077 45.179 183.195 45.1571 183.296 45.1159C183.398 45.0748 183.483 45.0172 183.554 44.9459C183.623 44.8746 183.678 44.7978 183.713 44.7128L184.026 44.8142C183.982 44.9349 183.913 45.0446 183.815 45.1461C183.716 45.2476 183.595 45.3271 183.45 45.3902C183.304 45.4506 183.134 45.4807 182.945 45.4807H182.94Z" fill="#025AFF"/>
<path d="M184.884 45.4232V41.6354H185.216V43.1247H185.246C185.282 43.0397 185.337 42.9519 185.406 42.8614C185.474 42.7709 185.567 42.6968 185.68 42.6337C185.792 42.5707 185.938 42.5432 186.11 42.5432C186.344 42.5432 186.549 42.6036 186.725 42.727C186.9 42.8504 187.038 43.0205 187.136 43.2399C187.235 43.4593 187.284 43.7171 187.284 44.0079C187.284 44.2986 187.235 44.5592 187.136 44.7786C187.038 44.998 186.9 45.1708 186.725 45.2942C186.549 45.4177 186.346 45.478 186.113 45.478C185.94 45.478 185.798 45.4478 185.683 45.3848C185.567 45.3244 185.474 45.2476 185.406 45.1571C185.334 45.0666 185.282 44.9788 185.244 44.8911H185.203V45.4177H184.882L184.884 45.4232ZM185.211 44.0051C185.211 44.2355 185.244 44.4385 185.312 44.614C185.381 44.7923 185.48 44.9295 185.609 45.0309C185.737 45.1324 185.894 45.1818 186.078 45.1818C186.261 45.1818 186.426 45.1297 186.558 45.0255C186.689 44.9212 186.788 44.7813 186.857 44.6031C186.925 44.4248 186.958 44.2273 186.958 44.0051C186.958 43.783 186.925 43.591 186.857 43.4154C186.788 43.2399 186.689 43.1 186.56 42.9985C186.429 42.8943 186.27 42.8449 186.08 42.8449C185.891 42.8449 185.737 42.8943 185.609 42.9931C185.48 43.0918 185.381 43.2289 185.312 43.4045C185.244 43.58 185.211 43.7802 185.211 44.0051Z" fill="#025AFF"/>
<path d="M189.89 45.4231V45.733H187.564V45.4231H189.89Z" fill="#025AFF"/>
<path d="M56.2273 23.2094L38.6808 14.2844L38.6863 14.2706L32.3638 11.0643L18.0677 39.2574L11.5422 52.1237C11.2158 52.7683 11.6821 53.528 12.4062 53.528H18.2212C18.5641 53.528 18.8768 53.336 19.0332 53.0316L34.9312 21.6816C35.1835 21.1852 35.7925 20.9877 36.2862 21.2428L47.7599 27.159V27.5567L33.1867 35.0719C32.8767 35.231 32.6792 35.5519 32.6792 35.9029V41.9041C32.6792 42.6282 33.4445 43.0972 34.0891 42.7681L56.2136 31.5145C56.5455 31.3472 56.7539 31.0071 56.7539 30.6341V24.0624C56.7539 23.7003 56.551 23.3684 56.2273 23.2039V23.2094Z" fill="#025AFF"/>
<path d="M88.9313 37.7653H81.4266C81.1907 37.7653 80.9987 37.5733 80.9987 37.3374V13.6947C80.9987 13.4588 81.1907 13.264 81.4294 13.264H89.1809C91.581 13.264 93.6436 13.7523 95.3662 14.7287C97.0887 15.7051 98.4109 17.1039 99.3325 18.9279C100.254 20.7491 100.715 22.9323 100.715 25.4776C100.715 28.0229 100.251 30.2226 99.3215 32.0576C98.3916 33.8925 97.0504 35.3023 95.2949 36.2869C93.5394 37.2716 91.4191 37.7653 88.9313 37.7653ZM84.6962 34.1092C84.6962 34.345 84.8882 34.537 85.1241 34.537H88.7283C90.5935 34.537 92.146 34.1832 93.3831 33.4783C94.6201 32.7734 95.5445 31.7476 96.1589 30.4037C96.7733 29.0597 97.0805 27.4195 97.0805 25.4804C97.0805 23.5412 96.7761 21.9285 96.1644 20.5873C95.5555 19.2488 94.6476 18.2312 93.4434 17.5373C92.2393 16.8434 90.7444 16.4978 88.9587 16.4978H83.9392C83.8569 16.4978 83.8157 16.5993 83.8761 16.6541L84.5646 17.3014C84.6523 17.3837 84.699 17.4961 84.699 17.6141V34.1092H84.6962Z" fill="white"/>
<path d="M105.021 37.3456V19.8083C105.021 19.5779 105.208 19.3914 105.438 19.3914H108.181C108.412 19.3914 108.598 19.5779 108.598 19.8083V37.3456C108.598 37.576 108.412 37.7625 108.181 37.7625H105.438C105.208 37.7625 105.021 37.576 105.021 37.3456Z" fill="white"/>
<path d="M105.021 17.8006V15.4062C105.021 15.1758 105.208 14.9893 105.438 14.9893H108.184C108.414 14.9893 108.601 15.1758 108.601 15.4062V17.8006C108.601 18.031 108.414 18.2175 108.184 18.2175H105.438C105.208 18.2175 105.021 18.031 105.021 17.8006Z" fill="white"/>
<path d="M134.198 37.3456V19.8083C134.198 19.5779 134.384 19.3914 134.615 19.3914H137.358C137.588 19.3914 137.775 19.5779 137.775 19.8083V37.3456C137.775 37.576 137.588 37.7625 137.358 37.7625H134.615C134.384 37.7625 134.198 37.576 134.198 37.3456Z" fill="white"/>
<path d="M134.198 17.8006V15.4062C134.198 15.1758 134.384 14.9893 134.615 14.9893H137.36C137.591 14.9893 137.777 15.1758 137.777 15.4062V17.8006C137.777 18.031 137.591 18.2175 137.36 18.2175H134.615C134.384 18.2175 134.198 18.031 134.198 17.8006Z" fill="white"/>
<path d="M129.381 19.6877C129.376 19.6602 129.365 19.6356 129.351 19.6109C129.343 19.5999 129.335 19.5889 129.329 19.5752C129.315 19.5533 129.299 19.5313 129.28 19.5149C129.206 19.4381 129.102 19.3915 128.986 19.3915H126.315C126.084 19.3915 125.898 19.578 125.895 19.8056L125.879 22.4387C125.879 22.5347 125.752 22.5676 125.703 22.4881C125.456 22.0986 124.998 21.3937 124.721 21.0426C124.326 20.5407 123.777 20.0991 123.075 19.7206C122.373 19.3421 121.454 19.1528 120.31 19.1528C118.835 19.1528 117.515 19.5259 116.352 20.2719C115.187 21.0152 114.273 22.0876 113.607 23.4837C112.943 24.8798 112.608 26.5528 112.608 28.5085C112.608 30.4641 112.946 32.107 113.618 33.4427C114.292 34.7784 115.209 35.785 116.369 36.468C117.529 37.1509 118.835 37.4911 120.286 37.4911C121.41 37.4911 122.324 37.3155 123.023 36.9644C123.723 36.6134 124.277 36.1992 124.68 35.722C124.962 35.3846 125.418 34.6934 125.662 34.3122C125.711 34.2354 125.829 34.2683 125.829 34.3615V38.0314C125.832 39.4494 125.39 40.4862 124.504 41.1389C123.618 41.7945 122.499 42.1209 121.144 42.1209C120.154 42.1209 119.348 41.981 118.722 41.7012C118.097 41.4215 117.603 41.0896 117.238 40.6974C116.97 40.4066 116.739 40.1296 116.55 39.869C116.473 39.7648 116.355 39.7072 116.232 39.7072C116.226 39.7072 116.218 39.7072 116.212 39.7072C116.199 39.7072 116.185 39.7072 116.174 39.7072C116.163 39.7072 116.155 39.7072 116.147 39.71C116.119 39.7154 116.095 39.7237 116.07 39.7319L115.999 39.7621L113.755 40.6891C113.727 40.6974 113.7 40.7083 113.675 40.722C113.472 40.8235 113.387 41.0731 113.497 41.2761C113.812 41.8576 114.24 42.4034 114.783 42.9163C115.447 43.5416 116.3 44.0463 117.351 44.4303C118.399 44.8115 119.652 45.0035 121.114 45.0035C122.678 45.0035 124.085 44.7594 125.333 44.2739C126.578 43.7885 127.571 43.0424 128.303 42.0304C129.038 41.0238 129.403 39.7346 129.403 38.174V19.8166C129.403 19.7727 129.398 19.7316 129.384 19.6904L129.381 19.6877ZM120.815 34.7208C117.543 34.7208 114.89 31.8711 114.89 28.3549C114.89 24.8386 117.543 21.9889 120.815 21.9889C124.087 21.9889 126.74 24.8386 126.74 28.3549C126.74 31.8711 124.087 34.7208 120.815 34.7208Z" fill="white"/>
<path d="M150.732 37.7653H146.061C144.838 37.7653 143.842 36.7779 143.831 35.5546C143.823 34.6111 143.815 33.6127 143.815 33.1135V22.3564C143.815 22.3042 143.773 22.2631 143.721 22.2631H141.543C141.31 22.2631 141.121 22.0739 141.121 21.8407V19.8138C141.121 19.5807 141.31 19.3914 141.543 19.3914H143.719C143.771 19.3914 143.812 19.3503 143.812 19.2982V15.4062C143.812 15.1758 143.998 14.9893 144.229 14.9893H146.972C147.202 14.9893 147.389 15.1758 147.389 15.4062V19.3009C147.389 19.3503 147.43 19.3914 147.479 19.3914H150.754C150.976 19.3914 151.157 19.5724 151.157 19.7946V21.8572C151.157 22.0793 150.976 22.2604 150.754 22.2604H146.895C146.799 22.2604 146.766 22.3865 146.851 22.4332L147.172 22.6087C147.306 22.6828 147.389 22.8226 147.389 22.9762V32.3675C147.389 32.853 147.394 33.898 147.397 34.4794C147.397 34.7071 147.583 34.8936 147.814 34.8936H150.732C150.968 34.8936 151.16 35.0856 151.16 35.3215V37.3374C151.16 37.5733 150.968 37.7653 150.732 37.7653Z" fill="white"/>
<path d="M157.974 37.7653C157.927 37.7653 157.883 37.7571 157.839 37.7434C157.653 37.6776 157.472 37.6035 157.296 37.5212C156.355 37.0879 155.612 36.4543 155.066 35.626C154.52 34.7976 154.246 33.7801 154.246 32.576C154.246 31.5392 154.446 30.6862 154.844 30.017C155.242 29.3477 155.782 28.8156 156.46 28.4262C157.137 28.0367 157.894 27.7405 158.733 27.5403C159.57 27.34 160.423 27.1892 161.293 27.0849C162.392 26.9588 163.287 26.8518 163.972 26.7668C164.658 26.6818 165.157 26.5446 165.467 26.3554C165.777 26.1634 165.934 25.8534 165.934 25.4228V25.3378C165.934 24.2928 165.64 23.4837 165.053 22.9104C164.466 22.3372 163.597 22.0492 162.439 22.0492C161.282 22.0492 160.289 22.3153 159.597 22.8446C159.252 23.1107 158.958 23.3904 158.72 23.6866C158.64 23.7826 158.528 23.843 158.402 23.843C157.826 23.843 156.273 23.843 155.409 23.843C155.11 23.843 154.915 23.533 155.039 23.2615C155.42 22.4085 155.927 21.7009 156.558 21.1331C157.329 20.4447 158.215 19.94 159.219 19.6246C160.223 19.3092 161.282 19.1528 162.39 19.1528C163.122 19.1528 163.904 19.2379 164.729 19.4107C165.555 19.5834 166.329 19.8961 167.05 20.3487C167.771 20.8012 168.364 21.4513 168.827 22.2933C169.291 23.1353 169.521 24.2242 169.521 25.5654V37.3484C169.521 37.5788 169.335 37.7681 169.102 37.7681H166.447C166.216 37.7681 166.027 37.5816 166.027 37.3484V35.2913C166.027 35.2008 165.906 35.1652 165.857 35.242C165.615 35.6232 165.19 36.3309 164.867 36.6435C164.419 37.0742 163.819 37.4444 163.128 37.7352C163.078 37.7571 163.021 37.7681 162.966 37.7681C162.003 37.7681 158.84 37.7681 157.968 37.7681L157.974 37.7653ZM161.232 35.3023C162.22 35.3023 163.067 35.1076 163.775 34.7154C164.48 34.3259 165.02 33.813 165.39 33.1794C165.761 32.5458 165.947 31.8656 165.947 31.1388V28.023C165.947 27.9325 165.829 27.8968 165.783 27.9736C165.635 28.204 165.415 28.5441 165.251 28.8074C165.097 29.0515 164.853 29.2271 164.568 29.2874C164.378 29.3285 164.181 29.3642 163.972 29.3999C163.509 29.4767 163.059 29.5425 162.62 29.6028C162.181 29.6632 161.814 29.7125 161.52 29.7537C160.826 29.8414 160.195 29.9896 159.625 30.1953C159.054 30.4037 158.599 30.6999 158.262 31.0867C157.922 31.4734 157.754 31.9863 157.754 32.6226C157.754 33.5085 158.081 34.175 158.736 34.6248C159.389 35.0747 160.223 35.2996 161.238 35.2996L161.232 35.3023Z" fill="white"/>
<path d="M177.86 13.6864V37.3429C177.86 37.576 177.671 37.7653 177.437 37.7653H174.703C174.47 37.7653 174.28 37.576 174.28 37.3429V13.6864C174.28 13.4533 174.47 13.264 174.703 13.264H177.437C177.671 13.264 177.86 13.4533 177.86 13.6864Z" fill="white"/>
<path d="M80.9987 41.7673H81.3992L82.7734 45.0669H82.8063L84.1805 41.7673H84.581V45.5551H84.2546V42.4997H84.2244L82.9462 45.5551H82.6307L81.3525 42.4997H81.3224V45.5551H80.996V41.7673H80.9987Z" fill="white"/>
<path d="M86.309 45.6181C86.1389 45.6181 85.9798 45.5851 85.8399 45.5166C85.6973 45.4507 85.5849 45.352 85.5026 45.2258C85.4175 45.0997 85.3764 44.9433 85.3764 44.7596C85.3764 44.6197 85.4038 44.5017 85.456 44.4057C85.5081 44.3097 85.5849 44.2302 85.6809 44.1699C85.7769 44.1095 85.8948 44.0602 86.0265 44.0245C86.1609 43.9888 86.3062 43.9614 86.4653 43.9422C86.6244 43.923 86.7588 43.9066 86.8685 43.8901C86.9783 43.8764 87.0633 43.8517 87.1209 43.8188C87.1785 43.7859 87.2087 43.7338 87.2087 43.6625V43.5966C87.2087 43.4019 87.1511 43.251 87.0359 43.1386C86.9207 43.0261 86.7561 42.9713 86.5394 42.9713C86.3227 42.9713 86.1691 43.0152 86.0402 43.1057C85.9113 43.1962 85.8207 43.3004 85.7686 43.4238L85.456 43.3114C85.519 43.155 85.6096 43.0316 85.722 42.9384C85.8345 42.8451 85.9634 42.7793 86.1033 42.7381C86.2432 42.697 86.3858 42.675 86.5312 42.675C86.6409 42.675 86.7533 42.6888 86.8713 42.7162C86.9892 42.7436 87.099 42.793 87.2005 42.8643C87.3019 42.9356 87.3842 43.0316 87.4473 43.155C87.5104 43.2785 87.5406 43.4348 87.5406 43.6268V45.555H87.2114V45.1052H87.1922C87.1538 45.1902 87.0935 45.2697 87.0167 45.3493C86.9399 45.4288 86.8411 45.4919 86.7259 45.544C86.608 45.5934 86.4708 45.6208 86.3145 45.6208L86.309 45.6181ZM86.3529 45.3163C86.5284 45.3163 86.6793 45.2779 86.8082 45.2012C86.9371 45.1244 87.0359 45.0201 87.1044 44.8912C87.173 44.7623 87.2087 44.6197 87.2087 44.4661V44.0547C87.184 44.0794 87.1428 44.0986 87.0852 44.1178C87.0276 44.137 86.9618 44.1534 86.8878 44.1671C86.8137 44.1808 86.7396 44.1946 86.6656 44.2028C86.5915 44.2137 86.5257 44.222 86.4653 44.2275C86.3062 44.2467 86.1691 44.2768 86.0539 44.3207C85.9414 44.3619 85.8537 44.4195 85.7933 44.4935C85.733 44.5676 85.7028 44.6608 85.7028 44.776C85.7028 44.9488 85.7632 45.0832 85.8866 45.1765C86.01 45.2697 86.1636 45.3191 86.3501 45.3191L86.3529 45.3163Z" fill="white"/>
<path d="M88.4128 45.5523V41.7645H88.742V45.5523H88.4128ZM88.7118 44.4799V44.0493H88.7831L90.1135 42.7135H90.5304L89.2165 44.0301L89.1864 44.0355L88.7118 44.4799ZM90.1821 45.5523L89.0273 44.0931L89.2631 43.8655L90.6017 45.5523H90.1793H90.1821Z" fill="white"/>
<path d="M92.1789 45.6126C91.9128 45.6126 91.6852 45.5495 91.4904 45.4261C91.2957 45.3026 91.1476 45.1298 91.0433 44.9104C90.9391 44.691 90.8842 44.4359 90.8842 44.1507C90.8842 43.8654 90.9364 43.6103 91.0433 43.3882C91.1476 43.166 91.2957 42.9905 91.4822 42.8643C91.6687 42.7381 91.8854 42.675 92.1295 42.675C92.2831 42.675 92.4312 42.7025 92.5739 42.7601C92.7165 42.8149 92.8454 42.9027 92.9606 43.0179C93.0758 43.1331 93.1636 43.2785 93.2322 43.4513C93.298 43.6268 93.3309 43.8325 93.3309 44.0684V44.2302H91.1119V43.9395H92.9935C92.9935 43.7557 92.9579 43.5939 92.8838 43.4458C92.8098 43.2977 92.7083 43.1852 92.5794 43.1002C92.4504 43.0152 92.2996 42.9713 92.1295 42.9713C91.9485 42.9713 91.7921 43.0206 91.655 43.1166C91.5178 43.2126 91.4109 43.3388 91.3341 43.4979C91.2573 43.657 91.2189 43.827 91.2161 44.0163V44.1891C91.2161 44.414 91.2545 44.6115 91.3341 44.7788C91.4136 44.9461 91.5233 45.0777 91.6687 45.171C91.8141 45.2642 91.9841 45.3109 92.1816 45.3109C92.316 45.3109 92.434 45.2889 92.5355 45.2478C92.637 45.2066 92.722 45.149 92.7933 45.0777C92.8619 45.0064 92.9167 44.9296 92.9524 44.8446L93.2651 44.9461C93.2212 45.0668 93.1526 45.1765 93.0539 45.2779C92.9551 45.3794 92.8345 45.459 92.6891 45.5221C92.5437 45.5851 92.3764 45.6126 92.1844 45.6126H92.1789Z" fill="white"/>
<path d="M94.0523 45.5523V42.7135H94.3732V43.1496H94.3979C94.4555 43.007 94.5543 42.8918 94.6941 42.804C94.834 42.7162 94.9959 42.6724 95.1742 42.6724C95.2016 42.6724 95.2317 42.6724 95.2647 42.6724C95.2976 42.6724 95.325 42.6724 95.347 42.6751V43.0097C95.3332 43.0097 95.3058 43.0042 95.2702 42.9988C95.2345 42.9933 95.1934 42.9905 95.1495 42.9905C95.0014 42.9905 94.8697 43.0207 94.7545 43.0838C94.6393 43.1469 94.5488 43.2319 94.4829 43.3416C94.4171 43.4513 94.3842 43.5775 94.3842 43.7174V45.5523H94.0551H94.0523Z" fill="white"/>
<path d="M97.4426 45.5523V41.7645H98.6659C98.9347 41.7645 99.1597 41.8166 99.3407 41.9181C99.5217 42.0223 99.6589 42.1595 99.7494 42.3378C99.8399 42.5133 99.8865 42.7135 99.8865 42.9329C99.8865 43.1524 99.8399 43.3526 99.7494 43.5281C99.6589 43.7037 99.5217 43.8436 99.3434 43.9478C99.1624 44.052 98.9402 44.1014 98.6714 44.1014H97.7086V43.7914H98.6604C98.8579 43.7914 99.0225 43.753 99.1542 43.679C99.2858 43.6049 99.3818 43.5034 99.4476 43.3718C99.5135 43.2401 99.5437 43.0948 99.5437 42.9302C99.5437 42.7656 99.5107 42.6175 99.4476 42.4886C99.3845 42.3597 99.2858 42.2582 99.1542 42.1842C99.0225 42.1101 98.8579 42.0745 98.655 42.0745H97.7882V45.5496H97.4426V45.5523Z" fill="white"/>
<path d="M100.63 45.5523V42.7135H100.951V43.1496H100.975C101.033 43.007 101.132 42.8918 101.272 42.804C101.412 42.7162 101.573 42.6724 101.752 42.6724C101.779 42.6724 101.809 42.6724 101.842 42.6724C101.875 42.6724 101.903 42.6724 101.925 42.6751V43.0097C101.911 43.0097 101.883 43.0042 101.848 42.9988C101.812 42.9933 101.771 42.9905 101.727 42.9905C101.579 42.9905 101.447 43.0207 101.332 43.0838C101.217 43.1469 101.126 43.2319 101.06 43.3416C100.995 43.4513 100.962 43.5775 100.962 43.7174V45.5523H100.633H100.63Z" fill="white"/>
<path d="M103.502 45.6126C103.258 45.6126 103.041 45.5495 102.852 45.4261C102.662 45.3026 102.517 45.1298 102.41 44.9104C102.303 44.691 102.251 44.4359 102.251 44.1479C102.251 43.8599 102.303 43.6021 102.41 43.3799C102.517 43.1578 102.662 42.985 102.852 42.8616C103.041 42.7381 103.258 42.675 103.502 42.675C103.746 42.675 103.963 42.7381 104.152 42.8616C104.338 42.985 104.486 43.1578 104.593 43.3799C104.7 43.5994 104.752 43.8572 104.752 44.1479C104.752 44.4387 104.7 44.691 104.593 44.9104C104.486 45.1298 104.341 45.3026 104.152 45.4261C103.963 45.5495 103.746 45.6126 103.502 45.6126ZM103.502 45.3109C103.699 45.3109 103.867 45.2587 104.004 45.1518C104.141 45.0448 104.245 44.9049 104.316 44.7294C104.388 44.5539 104.423 44.3591 104.423 44.1479C104.423 43.9367 104.388 43.742 104.316 43.5637C104.245 43.3854 104.141 43.2428 104.004 43.1358C103.867 43.0289 103.699 42.974 103.502 42.974C103.304 42.974 103.14 43.0289 103.003 43.1358C102.865 43.2428 102.761 43.3854 102.69 43.5637C102.618 43.742 102.583 43.9367 102.583 44.1479C102.583 44.3591 102.618 44.5539 102.69 44.7294C102.761 44.9049 102.865 45.0476 103.003 45.1518C103.14 45.256 103.307 45.3109 103.504 45.3109H103.502Z" fill="white"/>
<path d="M21.7569 31.9588C21.4771 32.3729 20.9258 32.5211 20.4677 32.2852L8.99406 26.369V25.9713L23.5673 18.4561C23.8772 18.297 24.0747 17.9761 24.0747 17.625V11.6238C24.0747 10.8997 23.3094 10.4307 22.6648 10.7598L0.540349 22.0135C0.208455 22.1808 0 22.5209 0 22.8939V29.4656C0 29.8277 0.202972 30.1595 0.526638 30.3241L18.0732 39.2491L18.0677 39.2628L21.7679 31.967C21.7651 31.967 21.7624 31.9643 21.7597 31.9615L21.7569 31.9588Z" fill="white"/>
<path d="M44.3477 0H38.5327C38.1898 0 37.8771 0.191994 37.7208 0.496443L32.3638 11.0616C32.3638 11.0616 32.3693 11.0671 32.3721 11.0699L38.6863 14.2707L45.2117 1.4043C45.5381 0.75975 45.0718 0 44.3504 0L44.3477 0Z" fill="white"/>
<path d="M48.1466 45.6179C49.7024 45.6179 50.9636 44.3568 50.9636 42.8011C50.9636 41.2454 49.7024 39.9843 48.1466 39.9843C46.5909 39.9843 45.3297 41.2454 45.3297 42.8011C45.3297 44.3568 46.5909 45.6179 48.1466 45.6179Z" fill="white"/>
<path d="M187.885 17.4633C186.719 17.4633 185.77 16.5142 185.77 15.3486C185.77 14.1829 186.719 13.2339 187.885 13.2339C189.051 13.2339 190 14.1829 190 15.3486C190 16.5142 189.051 17.4633 187.885 17.4633ZM187.885 13.3985C186.81 13.3985 185.935 14.2734 185.935 15.3486C185.935 16.4237 186.81 17.2987 187.885 17.2987C188.96 17.2987 189.835 16.4237 189.835 15.3486C189.835 14.2734 188.96 13.3985 187.885 13.3985Z" fill="white"/>
<path d="M189.084 14.9508H188.513C188.502 14.8768 188.48 14.8109 188.45 14.7533C188.42 14.6957 188.376 14.6464 188.327 14.6052C188.277 14.5641 188.22 14.5339 188.154 14.512C188.088 14.49 188.017 14.4791 187.94 14.4791C187.803 14.4791 187.682 14.512 187.581 14.5805C187.479 14.6491 187.4 14.7478 187.342 14.8768C187.285 15.0057 187.257 15.1647 187.257 15.3485C187.257 15.5323 187.285 15.6968 187.342 15.8285C187.4 15.9602 187.479 16.0561 187.581 16.122C187.682 16.1878 187.8 16.2207 187.935 16.2207C188.009 16.2207 188.08 16.2097 188.146 16.1905C188.212 16.1713 188.266 16.1412 188.319 16.1028C188.368 16.0644 188.412 16.0178 188.445 15.9629C188.478 15.908 188.502 15.845 188.513 15.7736H189.084C189.07 15.8998 189.032 16.015 188.974 16.1302C188.917 16.2427 188.837 16.3441 188.738 16.4347C188.64 16.5252 188.522 16.5937 188.387 16.6458C188.253 16.698 188.099 16.7226 187.926 16.7226C187.688 16.7226 187.477 16.6678 187.29 16.5608C187.103 16.4539 186.955 16.2975 186.848 16.0945C186.741 15.8916 186.687 15.6447 186.687 15.354C186.687 15.0633 186.741 14.8164 186.851 14.6134C186.961 14.4105 187.109 14.2541 187.295 14.1472C187.482 14.0402 187.693 13.9854 187.926 13.9854C188.08 13.9854 188.225 14.0073 188.357 14.0512C188.489 14.0951 188.607 14.1581 188.708 14.2404C188.81 14.3227 188.895 14.4242 188.958 14.5449C189.021 14.6656 189.065 14.8027 189.081 14.9563L189.084 14.9508Z" fill="white"/>
</svg>
