<svg width="107" height="107" viewBox="0 0 107 107" fill="none" xmlns="http://www.w3.org/2000/svg">
<mask id="mask0_5_1124" style="mask-type:alpha" maskUnits="userSpaceOnUse" x="0" y="0" width="107" height="107">
<rect x="0.965088" y="0.965088" width="106.035" height="106.035" fill="#D9D9D9"/>
</mask>
<g mask="url(#mask0_5_1124)">
<path d="M49.5645 93.7457H23.0557C20.6258 93.7457 18.5456 92.8805 16.8151 91.15C15.0847 89.4196 14.2195 87.3394 14.2195 84.9094V23.0557C14.2195 20.6258 15.0847 18.5456 16.8151 16.8151C18.5456 15.0847 20.6258 14.2195 23.0557 14.2195H49.5645V93.7457ZM40.7282 84.9094V23.0557H23.0557V84.9094H40.7282ZM58.4007 49.5645V14.2195H84.9094C87.3394 14.2195 89.4196 15.0847 91.15 16.8151C92.8805 18.5456 93.7457 20.6258 93.7457 23.0557V49.5645H58.4007ZM67.2369 40.7282H84.9094V23.0557H67.2369V40.7282ZM58.4007 93.7457V58.4007H93.7457V84.9094C93.7457 87.3394 92.8805 89.4196 91.15 91.15C89.4196 92.8805 87.3394 93.7457 84.9094 93.7457H58.4007ZM67.2369 84.9094H84.9094V67.2369H67.2369V84.9094Z" fill="#00E766"/>
</g>
</svg>
