<svg width="107" height="107" viewBox="0 0 107 107" fill="none" xmlns="http://www.w3.org/2000/svg">
<mask id="mask0_5_1136" style="mask-type:alpha" maskUnits="userSpaceOnUse" x="0" y="0" width="107" height="107">
<rect x="0.965088" y="0.965088" width="106.035" height="106.035" fill="#D9D9D9"/>
</mask>
<g mask="url(#mask0_5_1136)">
<path d="M53.9826 98.1637L52.878 84.9093H51.7735C41.3173 84.9093 32.4442 81.2644 25.1543 73.9745C17.8644 66.6846 14.2195 57.8115 14.2195 47.3553C14.2195 36.8991 17.8644 28.026 25.1543 20.7361C32.4442 13.4462 41.3173 9.80127 51.7735 9.80127C57.0016 9.80127 61.88 10.7769 66.4085 12.7283C70.9371 14.6796 74.9134 17.3673 78.3375 20.7913C81.7615 24.2154 84.4492 28.1917 86.4005 32.7203C88.3519 37.2488 89.3275 42.1272 89.3275 47.3553C89.3275 52.878 88.4255 58.1797 86.6215 63.2605C84.8174 68.3414 82.3506 73.054 79.2211 77.3985C76.0916 81.743 72.373 85.6825 68.0653 89.217C63.7577 92.7515 59.0634 95.7337 53.9826 98.1637ZM62.8188 82.0376C68.0469 77.6194 72.2994 72.4466 75.5761 66.5189C78.8529 60.5913 80.4913 54.2034 80.4913 47.3553C80.4913 39.329 77.7116 32.5362 72.1521 26.9767C66.5926 21.4172 59.7998 18.6375 51.7735 18.6375C43.7473 18.6375 36.9544 21.4172 31.3949 26.9767C25.8355 32.5362 23.0557 39.329 23.0557 47.3553C23.0557 55.3816 25.8355 62.1744 31.3949 67.7339C36.9544 73.2934 43.7473 76.0731 51.7735 76.0731H62.8188V82.0376ZM51.6631 71.5445C52.9149 71.5445 53.9826 71.1027 54.8662 70.2191C55.7498 69.3355 56.1916 68.2677 56.1916 67.0159C56.1916 65.7641 55.7498 64.6964 54.8662 63.8128C53.9826 62.9292 52.9149 62.4874 51.6631 62.4874C50.4113 62.4874 49.3435 62.9292 48.4599 63.8128C47.5763 64.6964 47.1345 65.7641 47.1345 67.0159C47.1345 68.2677 47.5763 69.3355 48.4599 70.2191C49.3435 71.1027 50.4113 71.5445 51.6631 71.5445ZM48.4599 57.517H55.0871C55.0871 55.3079 55.308 53.7616 55.7498 52.878C56.1916 51.9943 57.5907 50.3744 59.947 48.018C61.2725 46.6926 62.377 45.2567 63.2606 43.7104C64.1443 42.164 64.5861 40.5072 64.5861 38.74C64.5861 34.9846 63.3159 32.168 60.7754 30.2903C58.235 28.4126 55.2344 27.4738 51.7735 27.4738C48.5336 27.4738 45.809 28.3758 43.6 30.1799C41.3909 31.9839 39.8446 34.1746 38.961 36.7518L45.1463 39.1818C45.5145 37.93 46.214 36.6966 47.2449 35.4816C48.2758 34.2666 49.7854 33.6591 51.7735 33.6591C53.7617 33.6591 55.2528 34.2114 56.2469 35.3159C57.2409 36.4205 57.738 37.6354 57.738 38.9609C57.738 40.2127 57.3698 41.3356 56.6334 42.3297C55.8971 43.3238 55.0135 44.3363 53.9826 45.3671C51.4053 47.5762 49.8406 49.325 49.2883 50.6137C48.7361 51.9023 48.4599 54.2034 48.4599 57.517Z" fill="#00E766"/>
</g>
</svg>
