<svg width="1920" height="1080" viewBox="0 0 1920 1080" fill="none" xmlns="http://www.w3.org/2000/svg">
<g opacity="0.04">
<path d="M59.1607 72.4276C67.5284 72.4276 74.3117 65.6443 74.3117 57.2766C74.3117 48.909 67.5284 42.1257 59.1607 42.1257C50.7931 42.1257 44.0098 48.909 44.0098 57.2766C44.0098 65.6443 50.7931 72.4276 59.1607 72.4276Z" fill="#121214" fill-opacity="0.5"/>
<path d="M103.31 -46.2679L8.97142 -94.2523L9.00975 -94.329L-24.9936 -111.57L-101.861 40.0159L-136.938 109.193C-138.683 112.645 -136.171 116.749 -132.297 116.749H-101.036C-99.195 116.749 -97.5073 115.713 -96.6826 114.064L-11.2043 -54.4954C-9.84264 -57.1612 -6.58231 -58.216 -3.9165 -56.8544L57.7613 -25.0373V-22.9085L-20.5826 17.5005C-22.2511 18.3635 -23.3059 20.0896 -23.3059 21.9691V54.2272C-23.3059 58.1204 -19.2017 60.652 -15.7113 58.8875L103.233 -1.62044C105.017 -2.52183 106.129 -4.34379 106.129 -6.33835V-41.665C106.129 -43.6212 105.036 -45.3857 103.31 -46.2679Z" fill="#121214"/>
<path d="M247.24 135.863C245.725 138.088 242.772 138.894 240.317 137.628L178.639 105.811V103.682L256.983 63.273C258.651 62.41 259.706 60.6839 259.706 58.8044V26.5463C259.706 22.6531 255.602 20.1215 252.112 21.8859L133.148 82.3939C131.364 83.2953 130.252 85.1173 130.252 87.1118V122.438C130.252 124.395 131.345 126.159 133.071 127.041L227.41 175.026L227.371 175.102L247.259 135.883C247.259 135.883 247.221 135.883 247.221 135.863H247.24Z" fill="#121214" fill-opacity="0.5"/>
<path d="M368.697 -35.9753H337.436C335.595 -35.9753 333.908 -34.9397 333.083 -33.2904L304.277 23.5162C304.277 23.5162 304.296 23.5354 304.315 23.5545L338.261 40.7576L373.338 -28.419C375.084 -31.8712 372.571 -35.9753 368.697 -35.9753Z" fill="#121214" fill-opacity="0.5"/>
<path d="M388.412 207.514C396.78 207.514 403.563 200.731 403.563 192.363C403.563 183.996 396.78 177.212 388.412 177.212C380.045 177.212 373.261 183.996 373.261 192.363C373.261 200.731 380.045 207.514 388.412 207.514Z" fill="#121214" fill-opacity="0.5"/>
<path d="M432.562 88.8187L338.223 40.8343L338.261 40.7576L304.258 23.5162L227.391 175.103L192.314 244.279C190.568 247.731 193.081 251.835 196.955 251.835H228.216C230.057 251.835 231.744 250.8 232.569 249.15L318.047 80.5912C319.409 77.9254 322.669 76.8706 325.335 78.2323L387.013 110.049V112.178L308.669 152.587C307.001 153.45 305.946 155.176 305.946 157.056V189.314C305.946 193.207 310.05 195.739 313.54 193.974L432.485 133.466C434.269 132.565 435.381 130.743 435.381 128.748V93.4216C435.381 91.4654 434.288 89.701 432.562 88.8187Z" fill="#121214"/>
<path d="M576.492 0.776802C574.977 3.0015 572.024 3.80699 569.569 2.54121L507.891 -29.2758V-31.4046L586.235 -71.8136C587.903 -72.6766 588.958 -74.4027 588.958 -76.2822V-108.54C588.958 -112.434 584.854 -114.965 581.363 -113.201L462.4 -52.6927C460.616 -51.7913 459.504 -49.9694 459.504 -47.9748V-12.6481C459.504 -10.6919 460.597 -8.92751 462.323 -8.0453L556.662 39.9392L556.623 40.0159L576.511 0.795967C576.511 0.795967 576.473 0.795975 576.473 0.776802H576.492Z" fill="#121214" fill-opacity="0.5"/>
<path d="M717.664 72.4276C726.032 72.4276 732.815 65.6443 732.815 57.2766C732.815 48.909 726.032 42.1257 717.664 42.1257C709.297 42.1257 702.513 48.909 702.513 57.2766C702.513 65.6443 709.297 72.4276 717.664 72.4276Z" fill="#121214" fill-opacity="0.5"/>
<path d="M761.814 -46.2679L667.475 -94.2523L667.513 -94.329L633.51 -111.57L556.643 40.0159L521.565 109.193C519.82 112.645 522.333 116.749 526.207 116.749H557.468C559.309 116.749 560.996 115.713 561.821 114.064L647.299 -54.4954C648.661 -57.1612 651.921 -58.216 654.587 -56.8544L716.265 -25.0373V-22.9085L637.921 17.5005C636.253 18.3635 635.198 20.0896 635.198 21.9691V54.2272C635.198 58.1204 639.302 60.652 642.792 58.8875L761.737 -1.62044C763.521 -2.52183 764.633 -4.34379 764.633 -6.33835V-41.665C764.633 -43.6212 763.54 -45.3857 761.814 -46.2679Z" fill="#121214"/>
<path d="M905.744 135.863C904.229 138.088 901.275 138.894 898.82 137.628L837.143 105.811V103.682L915.487 63.273C917.155 62.41 918.21 60.6839 918.21 58.8044V26.5463C918.21 22.6531 914.106 20.1215 910.615 21.8859L791.651 82.3939C789.868 83.2953 788.755 85.1173 788.755 87.1118V122.438C788.755 124.395 789.849 126.159 791.575 127.041L885.913 175.026L885.875 175.102L905.763 135.883C905.763 135.883 905.725 135.883 905.725 135.863H905.744Z" fill="#121214" fill-opacity="0.5"/>
<path d="M1027.2 -35.9753H995.94C994.099 -35.9753 992.411 -34.9397 991.587 -33.2904L962.781 23.5162C962.781 23.5162 962.8 23.5354 962.819 23.5545L996.765 40.7576L1031.84 -28.419C1033.59 -31.8712 1031.07 -35.9753 1027.2 -35.9753Z" fill="#121214" fill-opacity="0.5"/>
<path d="M1046.92 207.514C1055.28 207.514 1062.07 200.731 1062.07 192.363C1062.07 183.996 1055.28 177.212 1046.92 177.212C1038.55 177.212 1031.77 183.996 1031.77 192.363C1031.77 200.731 1038.55 207.514 1046.92 207.514Z" fill="#121214" fill-opacity="0.5"/>
<path d="M1091.07 88.8187L996.727 40.8343L996.765 40.7576L962.762 23.5162L885.895 175.103L850.817 244.279C849.072 247.731 851.584 251.835 855.458 251.835H886.719C888.56 251.835 890.248 250.8 891.073 249.15L976.551 80.5912C977.913 77.9254 981.173 76.8706 983.839 78.2323L1045.52 110.049V112.178L967.173 152.587C965.504 153.45 964.449 155.176 964.449 157.056V189.314C964.449 193.207 968.554 195.739 972.044 193.974L1090.99 133.466C1092.77 132.565 1093.88 130.743 1093.88 128.748V93.4216C1093.88 91.4654 1092.79 89.701 1091.07 88.8187Z" fill="#121214"/>
<path d="M1235 0.776802C1233.48 3.0015 1230.53 3.80699 1228.07 2.54121L1166.39 -29.2758V-31.4046L1244.74 -71.8136C1246.41 -72.6766 1247.46 -74.4027 1247.46 -76.2822V-108.54C1247.46 -112.434 1243.36 -114.965 1239.87 -113.201L1120.9 -52.6927C1119.12 -51.7913 1118.01 -49.9694 1118.01 -47.9748V-12.6481C1118.01 -10.6919 1119.1 -8.92751 1120.83 -8.0453L1215.17 39.9392L1215.13 40.0159L1235.01 0.795967C1235.01 0.795967 1234.98 0.795975 1234.98 0.776802H1235Z" fill="#121214" fill-opacity="0.5"/>
<path d="M1376.17 72.4276C1384.54 72.4276 1391.32 65.6443 1391.32 57.2766C1391.32 48.909 1384.54 42.1257 1376.17 42.1257C1367.8 42.1257 1361.02 48.909 1361.02 57.2766C1361.02 65.6443 1367.8 72.4276 1376.17 72.4276Z" fill="#121214" fill-opacity="0.5"/>
<path d="M1420.32 -46.2679L1325.98 -94.2523L1326.02 -94.329L1292.01 -111.57L1215.15 40.0159L1180.07 109.193C1178.32 112.645 1180.84 116.749 1184.71 116.749H1215.97C1217.81 116.749 1219.5 115.713 1220.32 114.064L1305.8 -54.4954C1307.16 -57.1612 1310.43 -58.216 1313.09 -56.8544L1374.77 -25.0373V-22.9085L1296.43 17.5005C1294.76 18.3635 1293.7 20.0896 1293.7 21.9691V54.2272C1293.7 58.1204 1297.81 60.652 1301.3 58.8875L1420.24 -1.62044C1422.02 -2.52183 1423.14 -4.34379 1423.14 -6.33835V-41.665C1423.14 -43.6212 1422.04 -45.3857 1420.32 -46.2679Z" fill="#121214"/>
<path d="M1564.25 135.863C1562.73 138.088 1559.78 138.894 1557.32 137.628L1495.65 105.811V103.682L1573.99 63.273C1575.66 62.41 1576.71 60.6839 1576.71 58.8044V26.5463C1576.71 22.6531 1572.61 20.1215 1569.12 21.8859L1450.16 82.3939C1448.37 83.2953 1447.26 85.1173 1447.26 87.1118V122.438C1447.26 124.395 1448.35 126.159 1450.08 127.041L1544.42 175.026L1544.38 175.102L1564.27 135.883C1564.27 135.883 1564.23 135.883 1564.23 135.863H1564.25Z" fill="#121214" fill-opacity="0.5"/>
<path d="M1685.7 -35.9753H1654.44C1652.6 -35.9753 1650.91 -34.9397 1650.09 -33.2904L1621.28 23.5162C1621.28 23.5162 1621.3 23.5354 1621.32 23.5545L1655.27 40.7576L1690.35 -28.419C1692.09 -31.8712 1689.58 -35.9753 1685.7 -35.9753Z" fill="#121214" fill-opacity="0.5"/>
<path d="M1705.42 207.514C1713.79 207.514 1720.57 200.731 1720.57 192.363C1720.57 183.996 1713.79 177.212 1705.42 177.212C1697.05 177.212 1690.27 183.996 1690.27 192.363C1690.27 200.731 1697.05 207.514 1705.42 207.514Z" fill="#121214" fill-opacity="0.5"/>
<path d="M1749.57 88.8187L1655.23 40.8343L1655.27 40.7576L1621.27 23.5162L1544.4 175.103L1509.32 244.279C1507.58 247.731 1510.09 251.835 1513.96 251.835H1545.22C1547.06 251.835 1548.75 250.8 1549.58 249.15L1635.05 80.5912C1636.42 77.9254 1639.68 76.8706 1642.34 78.2323L1704.02 110.049V112.178L1625.68 152.587C1624.01 153.45 1622.95 155.176 1622.95 157.056V189.314C1622.95 193.207 1627.06 195.739 1630.55 193.974L1749.49 133.466C1751.28 132.565 1752.39 130.743 1752.39 128.748V93.4216C1752.39 91.4654 1751.3 89.701 1749.57 88.8187Z" fill="#121214"/>
<path d="M1893.5 0.776802C1891.98 3.0015 1889.03 3.80699 1886.58 2.54121L1824.9 -29.2758V-31.4046L1903.24 -71.8136C1904.91 -72.6766 1905.97 -74.4027 1905.97 -76.2822V-108.54C1905.97 -112.434 1901.86 -114.965 1898.37 -113.201L1779.41 -52.6927C1777.62 -51.7913 1776.51 -49.9694 1776.51 -47.9748V-12.6481C1776.51 -10.6919 1777.6 -8.92751 1779.33 -8.0453L1873.67 39.9392L1873.63 40.0159L1893.52 0.795967C1893.52 0.795967 1893.48 0.795975 1893.48 0.776802H1893.5Z" fill="#121214" fill-opacity="0.5"/>
<path d="M2078.82 -46.2679L1984.48 -94.2523L1984.52 -94.329L1950.52 -111.57L1873.65 40.0159L1838.57 109.193C1836.83 112.645 1839.34 116.749 1843.21 116.749H1874.47C1876.32 116.749 1878 115.713 1878.83 114.064L1964.31 -54.4954C1965.67 -57.1612 1968.93 -58.216 1971.59 -56.8544L2033.27 -25.0373V-22.9085L1954.93 17.5005C1953.26 18.3635 1952.21 20.0896 1952.21 21.9691V54.2272C1952.21 58.1204 1956.31 60.652 1959.8 58.8875L2078.74 -1.62044C2080.53 -2.52183 2081.64 -4.34379 2081.64 -6.33835V-41.665C2081.64 -43.6212 2080.55 -45.3857 2078.82 -46.2679Z" fill="#121214"/>
<path d="M39.4453 148.108H8.18444C6.34331 148.108 4.6556 149.144 3.83092 150.793L-24.9751 207.6C-24.9751 207.6 -24.9559 207.619 -24.9367 207.638L9.0091 224.841L44.0865 155.665C45.8317 152.212 43.3193 148.108 39.4453 148.108Z" fill="#121214" fill-opacity="0.5"/>
<path d="M59.1607 391.598C67.5284 391.598 74.3117 384.814 74.3117 376.447C74.3117 368.079 67.5284 361.296 59.1607 361.296C50.7931 361.296 44.0098 368.079 44.0098 376.447C44.0098 384.814 50.7931 391.598 59.1607 391.598Z" fill="#121214" fill-opacity="0.5"/>
<path d="M103.31 272.902L8.97142 224.918L9.00975 224.841L-24.9936 207.6L-101.861 359.186L-136.938 428.363C-138.683 431.815 -136.171 435.919 -132.297 435.919H-101.036C-99.195 435.919 -97.5073 434.884 -96.6826 433.234L-11.2043 264.675C-9.84264 262.009 -6.58231 260.954 -3.9165 262.316L57.7613 294.133V296.262L-20.5826 336.671C-22.2511 337.534 -23.3059 339.26 -23.3059 341.139V373.397C-23.3059 377.291 -19.2017 379.822 -15.7113 378.058L103.233 317.55C105.017 316.648 106.129 314.826 106.129 312.832V277.505C106.129 275.549 105.036 273.785 103.31 272.902Z" fill="#121214"/>
<path d="M247.24 455.034C245.725 457.258 242.772 458.064 240.317 456.798L178.639 424.981V422.852L256.983 382.443C258.651 381.58 259.706 379.854 259.706 377.975V345.717C259.706 341.823 255.602 339.292 252.112 341.056L133.148 401.564C131.364 402.466 130.252 404.288 130.252 406.282V441.609C130.252 443.565 131.345 445.329 133.071 446.212L227.41 494.196L227.371 494.273L247.259 455.053C247.259 455.053 247.221 455.053 247.221 455.034H247.24Z" fill="#121214" fill-opacity="0.5"/>
<path d="M368.697 283.195H337.436C335.595 283.195 333.908 284.231 333.083 285.88L304.277 342.686C304.277 342.686 304.296 342.706 304.315 342.725L338.261 359.928L373.338 290.751C375.084 287.299 372.571 283.195 368.697 283.195Z" fill="#121214" fill-opacity="0.5"/>
<path d="M388.412 526.685C396.78 526.685 403.563 519.901 403.563 511.534C403.563 503.166 396.78 496.383 388.412 496.383C380.045 496.383 373.261 503.166 373.261 511.534C373.261 519.901 380.045 526.685 388.412 526.685Z" fill="#121214" fill-opacity="0.5"/>
<path d="M432.562 407.989L338.223 360.005L338.261 359.928L304.258 342.687L227.391 494.273L192.314 563.45C190.568 566.902 193.081 571.006 196.955 571.006H228.216C230.057 571.006 231.744 569.97 232.569 568.321L318.047 399.762C319.409 397.096 322.669 396.041 325.335 397.403L387.013 429.22V431.348L308.669 471.757C307.001 472.62 305.946 474.347 305.946 476.226V508.484C305.946 512.377 310.05 514.909 313.54 513.145L432.485 452.637C434.269 451.735 435.381 449.913 435.381 447.919V412.592C435.381 410.636 434.288 408.871 432.562 407.989Z" fill="#121214"/>
<path d="M576.492 319.947C574.977 322.172 572.024 322.977 569.569 321.712L507.891 289.894V287.766L586.235 247.357C587.903 246.494 588.958 244.768 588.958 242.888V210.63C588.958 206.737 584.854 204.205 581.363 205.97L462.4 266.478C460.616 267.379 459.504 269.201 459.504 271.195V306.522C459.504 308.478 460.597 310.243 462.323 311.125L556.662 359.109L556.623 359.186L576.511 319.966C576.511 319.966 576.473 319.966 576.473 319.947H576.492Z" fill="#121214" fill-opacity="0.5"/>
<path d="M697.949 148.108H666.688C664.847 148.108 663.159 149.144 662.335 150.793L633.529 207.6C633.529 207.6 633.548 207.619 633.567 207.638L667.513 224.841L702.59 155.665C704.335 152.212 701.823 148.108 697.949 148.108Z" fill="#121214" fill-opacity="0.5"/>
<path d="M717.664 391.598C726.032 391.598 732.815 384.814 732.815 376.447C732.815 368.079 726.032 361.296 717.664 361.296C709.297 361.296 702.513 368.079 702.513 376.447C702.513 384.814 709.297 391.598 717.664 391.598Z" fill="#121214" fill-opacity="0.5"/>
<path d="M761.814 272.902L667.475 224.918L667.513 224.841L633.51 207.6L556.643 359.186L521.565 428.363C519.82 431.815 522.333 435.919 526.207 435.919H557.468C559.309 435.919 560.996 434.884 561.821 433.234L647.299 264.675C648.661 262.009 651.921 260.954 654.587 262.316L716.265 294.133V296.262L637.921 336.671C636.253 337.534 635.198 339.26 635.198 341.139V373.397C635.198 377.291 639.302 379.822 642.792 378.058L761.737 317.55C763.521 316.648 764.633 314.826 764.633 312.832V277.505C764.633 275.549 763.54 273.785 761.814 272.902Z" fill="#121214"/>
<path d="M905.744 455.034C904.229 457.258 901.275 458.064 898.82 456.798L837.143 424.981V422.852L915.487 382.443C917.155 381.58 918.21 379.854 918.21 377.975V345.717C918.21 341.823 914.106 339.292 910.615 341.056L791.651 401.564C789.868 402.466 788.755 404.288 788.755 406.282V441.609C788.755 443.565 789.849 445.329 791.575 446.212L885.913 494.196L885.875 494.273L905.763 455.053C905.763 455.053 905.725 455.053 905.725 455.034H905.744Z" fill="#121214" fill-opacity="0.5"/>
<path d="M1027.2 283.195H995.94C994.099 283.195 992.411 284.231 991.587 285.88L962.781 342.686C962.781 342.686 962.8 342.706 962.819 342.725L996.765 359.928L1031.84 290.751C1033.59 287.299 1031.07 283.195 1027.2 283.195Z" fill="#121214" fill-opacity="0.5"/>
<path d="M1046.92 526.685C1055.28 526.685 1062.07 519.901 1062.07 511.534C1062.07 503.166 1055.28 496.383 1046.92 496.383C1038.55 496.383 1031.77 503.166 1031.77 511.534C1031.77 519.901 1038.55 526.685 1046.92 526.685Z" fill="#121214" fill-opacity="0.5"/>
<path d="M1091.07 407.989L996.727 360.005L996.765 359.928L962.762 342.687L885.895 494.273L850.817 563.45C849.072 566.902 851.584 571.006 855.458 571.006H886.719C888.56 571.006 890.248 569.97 891.073 568.321L976.551 399.762C977.913 397.096 981.173 396.041 983.839 397.403L1045.52 429.22V431.348L967.173 471.757C965.504 472.62 964.449 474.347 964.449 476.226V508.484C964.449 512.377 968.554 514.909 972.044 513.145L1090.99 452.637C1092.77 451.735 1093.88 449.913 1093.88 447.919V412.592C1093.88 410.636 1092.79 408.871 1091.07 407.989Z" fill="#121214"/>
<path d="M1235 319.947C1233.48 322.172 1230.53 322.977 1228.07 321.712L1166.39 289.894V287.766L1244.74 247.357C1246.41 246.494 1247.46 244.768 1247.46 242.888V210.63C1247.46 206.737 1243.36 204.205 1239.87 205.97L1120.9 266.478C1119.12 267.379 1118.01 269.201 1118.01 271.195V306.522C1118.01 308.478 1119.1 310.243 1120.83 311.125L1215.17 359.109L1215.13 359.186L1235.01 319.966C1235.01 319.966 1234.98 319.966 1234.98 319.947H1235Z" fill="#121214" fill-opacity="0.5"/>
<path d="M1356.45 148.108H1325.19C1323.35 148.108 1321.66 149.144 1320.84 150.793L1292.03 207.6C1292.03 207.6 1292.05 207.619 1292.07 207.638L1326.02 224.841L1361.09 155.665C1362.84 152.212 1360.33 148.108 1356.45 148.108Z" fill="#121214" fill-opacity="0.5"/>
<path d="M1376.17 391.598C1384.54 391.598 1391.32 384.814 1391.32 376.447C1391.32 368.079 1384.54 361.296 1376.17 361.296C1367.8 361.296 1361.02 368.079 1361.02 376.447C1361.02 384.814 1367.8 391.598 1376.17 391.598Z" fill="#121214" fill-opacity="0.5"/>
<path d="M1420.32 272.902L1325.98 224.918L1326.02 224.841L1292.01 207.6L1215.15 359.186L1180.07 428.363C1178.32 431.815 1180.84 435.919 1184.71 435.919H1215.97C1217.81 435.919 1219.5 434.884 1220.32 433.234L1305.8 264.675C1307.16 262.009 1310.43 260.954 1313.09 262.316L1374.77 294.133V296.262L1296.43 336.671C1294.76 337.534 1293.7 339.26 1293.7 341.139V373.397C1293.7 377.291 1297.81 379.822 1301.3 378.058L1420.24 317.55C1422.02 316.648 1423.14 314.826 1423.14 312.832V277.505C1423.14 275.549 1422.04 273.785 1420.32 272.902Z" fill="#121214"/>
<path d="M1564.25 455.034C1562.73 457.258 1559.78 458.064 1557.32 456.798L1495.65 424.981V422.852L1573.99 382.443C1575.66 381.58 1576.71 379.854 1576.71 377.975V345.717C1576.71 341.823 1572.61 339.292 1569.12 341.056L1450.16 401.564C1448.37 402.466 1447.26 404.288 1447.26 406.282V441.609C1447.26 443.565 1448.35 445.329 1450.08 446.212L1544.42 494.196L1544.38 494.273L1564.27 455.053C1564.27 455.053 1564.23 455.053 1564.23 455.034H1564.25Z" fill="#121214" fill-opacity="0.5"/>
<path d="M1685.7 283.195H1654.44C1652.6 283.195 1650.91 284.231 1650.09 285.88L1621.28 342.686C1621.28 342.686 1621.3 342.706 1621.32 342.725L1655.27 359.928L1690.35 290.751C1692.09 287.299 1689.58 283.195 1685.7 283.195Z" fill="#121214" fill-opacity="0.5"/>
<path d="M1705.42 526.685C1713.79 526.685 1720.57 519.901 1720.57 511.534C1720.57 503.166 1713.79 496.383 1705.42 496.383C1697.05 496.383 1690.27 503.166 1690.27 511.534C1690.27 519.901 1697.05 526.685 1705.42 526.685Z" fill="#121214" fill-opacity="0.5"/>
<path d="M1749.57 407.989L1655.23 360.005L1655.27 359.928L1621.27 342.687L1544.4 494.273L1509.32 563.45C1507.58 566.902 1510.09 571.006 1513.96 571.006H1545.22C1547.06 571.006 1548.75 569.97 1549.58 568.321L1635.05 399.762C1636.42 397.096 1639.68 396.041 1642.34 397.403L1704.02 429.22V431.348L1625.68 471.757C1624.01 472.62 1622.95 474.347 1622.95 476.226V508.484C1622.95 512.377 1627.06 514.909 1630.55 513.145L1749.49 452.637C1751.28 451.735 1752.39 449.913 1752.39 447.919V412.592C1752.39 410.636 1751.3 408.871 1749.57 407.989Z" fill="#121214"/>
<path d="M1893.5 319.947C1891.98 322.172 1889.03 322.977 1886.58 321.712L1824.9 289.894V287.766L1903.24 247.357C1904.91 246.494 1905.97 244.768 1905.97 242.888V210.63C1905.97 206.737 1901.86 204.205 1898.37 205.97L1779.41 266.478C1777.62 267.379 1776.51 269.201 1776.51 271.195V306.522C1776.51 308.478 1777.6 310.243 1779.33 311.125L1873.67 359.109L1873.63 359.186L1893.52 319.966C1893.52 319.966 1893.48 319.966 1893.48 319.947H1893.5Z" fill="#121214" fill-opacity="0.5"/>
<path d="M2078.82 272.902L1984.48 224.918L1984.52 224.841L1950.52 207.6L1873.65 359.186L1838.57 428.363C1836.83 431.815 1839.34 435.919 1843.21 435.919H1874.47C1876.32 435.919 1878 434.884 1878.83 433.234L1964.31 264.675C1965.67 262.009 1968.93 260.954 1971.59 262.316L2033.27 294.133V296.262L1954.93 336.671C1953.26 337.534 1952.21 339.26 1952.21 341.139V373.397C1952.21 377.291 1956.31 379.822 1959.8 378.058L2078.74 317.55C2080.53 316.648 2081.64 314.826 2081.64 312.832V277.505C2081.64 275.549 2080.55 273.785 2078.82 272.902Z" fill="#121214"/>
<path d="M39.4453 465.775H8.18444C6.34331 465.775 4.6556 466.811 3.83092 468.46L-24.9751 525.266C-24.9751 525.266 -24.9559 525.286 -24.9367 525.305L9.0091 542.508L44.0865 473.331C45.8317 469.879 43.3193 465.775 39.4453 465.775Z" fill="#121214" fill-opacity="0.5"/>
<path d="M59.1607 709.264C67.5284 709.264 74.3117 702.481 74.3117 694.113C74.3117 685.746 67.5284 678.963 59.1607 678.963C50.7931 678.963 44.0098 685.746 44.0098 694.113C44.0098 702.481 50.7931 709.264 59.1607 709.264Z" fill="#121214" fill-opacity="0.5"/>
<path d="M103.31 590.569L8.97142 542.585L9.00975 542.508L-24.9936 525.267L-101.861 676.853L-136.938 746.03C-138.683 749.482 -136.171 753.586 -132.297 753.586H-101.036C-99.195 753.586 -97.5073 752.55 -96.6826 750.901L-11.2043 582.342C-9.84264 579.676 -6.58231 578.621 -3.9165 579.983L57.7613 611.8V613.929L-20.5826 654.338C-22.2511 655.201 -23.3059 656.927 -23.3059 658.806V691.064C-23.3059 694.957 -19.2017 697.489 -15.7113 695.725L103.233 635.217C105.017 634.315 106.129 632.493 106.129 630.499V595.172C106.129 593.216 105.036 591.451 103.31 590.569Z" fill="#121214"/>
<path d="M247.24 772.7C245.725 774.925 242.772 775.731 240.317 774.465L178.639 742.648V740.519L256.983 700.11C258.651 699.247 259.706 697.521 259.706 695.641V663.383C259.706 659.49 255.602 656.959 252.112 658.723L133.148 719.231C131.364 720.132 130.252 721.954 130.252 723.949V759.275C130.252 761.232 131.345 762.996 133.071 763.878L227.41 811.863L227.371 811.939L247.259 772.72C247.259 772.72 247.221 772.72 247.221 772.7H247.24Z" fill="#121214" fill-opacity="0.5"/>
<path d="M368.697 600.862H337.436C335.595 600.862 333.908 601.897 333.083 603.547L304.277 660.353C304.277 660.353 304.296 660.372 304.315 660.392L338.261 677.595L373.338 608.418C375.084 604.966 372.571 600.862 368.697 600.862Z" fill="#121214" fill-opacity="0.5"/>
<path d="M388.412 844.351C396.78 844.351 403.563 837.568 403.563 829.2C403.563 820.833 396.78 814.049 388.412 814.049C380.045 814.049 373.261 820.833 373.261 829.2C373.261 837.568 380.045 844.351 388.412 844.351Z" fill="#121214" fill-opacity="0.5"/>
<path d="M432.562 725.656L338.223 677.671L338.261 677.595L304.258 660.353L227.391 811.94L192.314 881.116C190.568 884.568 193.081 888.673 196.955 888.673H228.216C230.057 888.673 231.744 887.637 232.569 885.988L318.047 717.428C319.409 714.762 322.669 713.708 325.335 715.069L387.013 746.886V749.015L308.669 789.424C307.001 790.287 305.946 792.013 305.946 793.893V826.151C305.946 830.044 310.05 832.576 313.54 830.811L432.485 770.303C434.269 769.402 435.381 767.58 435.381 765.585V730.259C435.381 728.302 434.288 726.538 432.562 725.656Z" fill="#121214"/>
<path d="M576.492 637.614C574.977 639.839 572.024 640.644 569.569 639.378L507.891 607.561V605.432L586.235 565.023C587.903 564.16 588.958 562.434 588.958 560.555V528.297C588.958 524.404 584.854 521.872 581.363 523.636L462.4 584.144C460.616 585.046 459.504 586.868 459.504 588.862V624.189C459.504 626.145 460.597 627.91 462.323 628.792L556.662 676.776L556.623 676.853L576.511 637.633C576.511 637.633 576.473 637.633 576.473 637.614H576.492Z" fill="#121214" fill-opacity="0.5"/>
<path d="M697.949 465.775H666.688C664.847 465.775 663.159 466.811 662.335 468.46L633.529 525.266C633.529 525.266 633.548 525.286 633.567 525.305L667.513 542.508L702.59 473.331C704.335 469.879 701.823 465.775 697.949 465.775Z" fill="#121214" fill-opacity="0.5"/>
<path d="M717.664 709.264C726.032 709.264 732.815 702.481 732.815 694.113C732.815 685.746 726.032 678.963 717.664 678.963C709.297 678.963 702.513 685.746 702.513 694.113C702.513 702.481 709.297 709.264 717.664 709.264Z" fill="#121214" fill-opacity="0.5"/>
<path d="M761.814 590.569L667.475 542.585L667.513 542.508L633.51 525.267L556.643 676.853L521.565 746.03C519.82 749.482 522.333 753.586 526.207 753.586H557.468C559.309 753.586 560.996 752.55 561.821 750.901L647.299 582.342C648.661 579.676 651.921 578.621 654.587 579.983L716.265 611.8V613.929L637.921 654.338C636.253 655.201 635.198 656.927 635.198 658.806V691.064C635.198 694.957 639.302 697.489 642.792 695.725L761.737 635.217C763.521 634.315 764.633 632.493 764.633 630.499V595.172C764.633 593.216 763.54 591.451 761.814 590.569Z" fill="#121214"/>
<path d="M905.744 772.7C904.229 774.925 901.275 775.731 898.82 774.465L837.143 742.648V740.519L915.487 700.11C917.155 699.247 918.21 697.521 918.21 695.641V663.383C918.21 659.49 914.106 656.959 910.615 658.723L791.651 719.231C789.868 720.132 788.755 721.954 788.755 723.949V759.275C788.755 761.232 789.849 762.996 791.575 763.878L885.913 811.863L885.875 811.939L905.763 772.72C905.763 772.72 905.725 772.72 905.725 772.7H905.744Z" fill="#121214" fill-opacity="0.5"/>
<path d="M1027.2 600.862H995.94C994.099 600.862 992.411 601.897 991.587 603.547L962.781 660.353C962.781 660.353 962.8 660.372 962.819 660.392L996.765 677.595L1031.84 608.418C1033.59 604.966 1031.07 600.862 1027.2 600.862Z" fill="#121214" fill-opacity="0.5"/>
<path d="M1046.92 844.351C1055.28 844.351 1062.07 837.568 1062.07 829.2C1062.07 820.833 1055.28 814.049 1046.92 814.049C1038.55 814.049 1031.77 820.833 1031.77 829.2C1031.77 837.568 1038.55 844.351 1046.92 844.351Z" fill="#121214" fill-opacity="0.5"/>
<path d="M1091.07 725.656L996.727 677.671L996.765 677.595L962.762 660.353L885.895 811.94L850.817 881.116C849.072 884.568 851.584 888.673 855.458 888.673H886.719C888.56 888.673 890.248 887.637 891.073 885.988L976.551 717.428C977.913 714.762 981.173 713.708 983.839 715.069L1045.52 746.886V749.015L967.173 789.424C965.504 790.287 964.449 792.013 964.449 793.893V826.151C964.449 830.044 968.554 832.576 972.044 830.811L1090.99 770.303C1092.77 769.402 1093.88 767.58 1093.88 765.585V730.259C1093.88 728.302 1092.79 726.538 1091.07 725.656Z" fill="#121214"/>
<path d="M1235 637.614C1233.48 639.839 1230.53 640.644 1228.07 639.378L1166.39 607.561V605.432L1244.74 565.023C1246.41 564.16 1247.46 562.434 1247.46 560.555V528.297C1247.46 524.404 1243.36 521.872 1239.87 523.636L1120.9 584.144C1119.12 585.046 1118.01 586.868 1118.01 588.862V624.189C1118.01 626.145 1119.1 627.91 1120.83 628.792L1215.17 676.776L1215.13 676.853L1235.01 637.633C1235.01 637.633 1234.98 637.633 1234.98 637.614H1235Z" fill="#121214" fill-opacity="0.5"/>
<path d="M1356.45 465.775H1325.19C1323.35 465.775 1321.66 466.811 1320.84 468.46L1292.03 525.266C1292.03 525.266 1292.05 525.286 1292.07 525.305L1326.02 542.508L1361.09 473.331C1362.84 469.879 1360.33 465.775 1356.45 465.775Z" fill="#121214" fill-opacity="0.5"/>
<path d="M1376.17 709.264C1384.54 709.264 1391.32 702.481 1391.32 694.113C1391.32 685.746 1384.54 678.963 1376.17 678.963C1367.8 678.963 1361.02 685.746 1361.02 694.113C1361.02 702.481 1367.8 709.264 1376.17 709.264Z" fill="#121214" fill-opacity="0.5"/>
<path d="M1420.32 590.569L1325.98 542.585L1326.02 542.508L1292.01 525.267L1215.15 676.853L1180.07 746.03C1178.32 749.482 1180.84 753.586 1184.71 753.586H1215.97C1217.81 753.586 1219.5 752.55 1220.32 750.901L1305.8 582.342C1307.16 579.676 1310.43 578.621 1313.09 579.983L1374.77 611.8V613.929L1296.43 654.338C1294.76 655.201 1293.7 656.927 1293.7 658.806V691.064C1293.7 694.957 1297.81 697.489 1301.3 695.725L1420.24 635.217C1422.02 634.315 1423.14 632.493 1423.14 630.499V595.172C1423.14 593.216 1422.04 591.451 1420.32 590.569Z" fill="#121214"/>
<path d="M1564.25 772.7C1562.73 774.925 1559.78 775.731 1557.32 774.465L1495.65 742.648V740.519L1573.99 700.11C1575.66 699.247 1576.71 697.521 1576.71 695.641V663.383C1576.71 659.49 1572.61 656.959 1569.12 658.723L1450.16 719.231C1448.37 720.132 1447.26 721.954 1447.26 723.949V759.275C1447.26 761.232 1448.35 762.996 1450.08 763.878L1544.42 811.863L1544.38 811.939L1564.27 772.72C1564.27 772.72 1564.23 772.72 1564.23 772.7H1564.25Z" fill="#121214" fill-opacity="0.5"/>
<path d="M1685.7 600.862H1654.44C1652.6 600.862 1650.91 601.897 1650.09 603.547L1621.28 660.353C1621.28 660.353 1621.3 660.372 1621.32 660.392L1655.27 677.595L1690.35 608.418C1692.09 604.966 1689.58 600.862 1685.7 600.862Z" fill="#121214" fill-opacity="0.5"/>
<path d="M1705.42 844.351C1713.79 844.351 1720.57 837.568 1720.57 829.2C1720.57 820.833 1713.79 814.049 1705.42 814.049C1697.05 814.049 1690.27 820.833 1690.27 829.2C1690.27 837.568 1697.05 844.351 1705.42 844.351Z" fill="#121214" fill-opacity="0.5"/>
<path d="M1749.57 725.656L1655.23 677.671L1655.27 677.595L1621.27 660.353L1544.4 811.94L1509.32 881.116C1507.58 884.568 1510.09 888.673 1513.96 888.673H1545.22C1547.06 888.673 1548.75 887.637 1549.58 885.988L1635.05 717.428C1636.42 714.762 1639.68 713.708 1642.34 715.069L1704.02 746.886V749.015L1625.68 789.424C1624.01 790.287 1622.95 792.013 1622.95 793.893V826.151C1622.95 830.044 1627.06 832.576 1630.55 830.811L1749.49 770.303C1751.28 769.402 1752.39 767.58 1752.39 765.585V730.259C1752.39 728.302 1751.3 726.538 1749.57 725.656Z" fill="#121214"/>
<path d="M1893.5 637.614C1891.98 639.839 1889.03 640.644 1886.58 639.378L1824.9 607.561V605.432L1903.24 565.023C1904.91 564.16 1905.97 562.434 1905.97 560.555V528.297C1905.97 524.404 1901.86 521.872 1898.37 523.636L1779.41 584.144C1777.62 585.046 1776.51 586.868 1776.51 588.862V624.189C1776.51 626.145 1777.6 627.91 1779.33 628.792L1873.67 676.776L1873.63 676.853L1893.52 637.633C1893.52 637.633 1893.48 637.633 1893.48 637.614H1893.5Z" fill="#121214" fill-opacity="0.5"/>
<path d="M2078.82 590.569L1984.48 542.585L1984.52 542.508L1950.52 525.267L1873.65 676.853L1838.57 746.03C1836.83 749.482 1839.34 753.586 1843.21 753.586H1874.47C1876.32 753.586 1878 752.55 1878.83 750.901L1964.31 582.342C1965.67 579.676 1968.93 578.621 1971.59 579.983L2033.27 611.8V613.929L1954.93 654.338C1953.26 655.201 1952.21 656.927 1952.21 658.806V691.064C1952.21 694.957 1956.31 697.489 1959.8 695.725L2078.74 635.217C2080.53 634.315 2081.64 632.493 2081.64 630.499V595.172C2081.64 593.216 2080.55 591.451 2078.82 590.569Z" fill="#121214"/>
<path d="M39.4453 784.945H8.18444C6.34331 784.945 4.6556 785.981 3.83092 787.63L-24.9751 844.437C-24.9751 844.437 -24.9559 844.456 -24.9367 844.475L9.0091 861.678L44.0865 792.502C45.8317 789.049 43.3193 784.945 39.4453 784.945Z" fill="#121214" fill-opacity="0.5"/>
<path d="M59.1607 1028.43C67.5284 1028.43 74.3117 1021.65 74.3117 1013.28C74.3117 1004.92 67.5284 998.133 59.1607 998.133C50.7931 998.133 44.0098 1004.92 44.0098 1013.28C44.0098 1021.65 50.7931 1028.43 59.1607 1028.43Z" fill="#121214" fill-opacity="0.5"/>
<path d="M103.31 909.739L8.97142 861.755L9.00975 861.678L-24.9936 844.437L-101.861 996.023L-136.938 1065.2C-138.683 1068.65 -136.171 1072.76 -132.297 1072.76H-101.036C-99.195 1072.76 -97.5073 1071.72 -96.6826 1070.07L-11.2043 901.512C-9.84264 898.846 -6.58231 897.791 -3.9165 899.153L57.7613 930.97V933.099L-20.5826 973.508C-22.2511 974.371 -23.3059 976.097 -23.3059 977.976V1010.23C-23.3059 1014.13 -19.2017 1016.66 -15.7113 1014.89L103.233 954.387C105.017 953.485 106.129 951.663 106.129 949.669V914.342C106.129 912.386 105.036 910.622 103.31 909.739Z" fill="#121214"/>
<path d="M247.24 1091.87C245.725 1094.1 242.772 1094.9 240.317 1093.63L178.639 1061.82V1059.69L256.983 1019.28C258.651 1018.42 259.706 1016.69 259.706 1014.81V982.553C259.706 978.66 255.602 976.129 252.112 977.893L133.148 1038.4C131.364 1039.3 130.252 1041.12 130.252 1043.12V1078.45C130.252 1080.4 131.345 1082.17 133.071 1083.05L227.41 1131.03L227.371 1131.11L247.259 1091.89C247.259 1091.89 247.221 1091.89 247.221 1091.87H247.24Z" fill="#121214" fill-opacity="0.5"/>
<path d="M368.697 920.032H337.436C335.595 920.032 333.908 921.067 333.083 922.717L304.277 979.523C304.277 979.523 304.296 979.543 304.315 979.562L338.261 996.765L373.338 927.588C375.084 924.136 372.571 920.032 368.697 920.032Z" fill="#121214" fill-opacity="0.5"/>
<path d="M432.562 1044.83L338.223 996.842L338.261 996.765L304.258 979.523L227.391 1131.11L192.314 1200.29C190.568 1203.74 193.081 1207.84 196.955 1207.84H228.216C230.057 1207.84 231.744 1206.81 232.569 1205.16L318.047 1036.6C319.409 1033.93 322.669 1032.88 325.335 1034.24L387.013 1066.06V1068.19L308.669 1108.59C307.001 1109.46 305.946 1111.18 305.946 1113.06V1145.32C305.946 1149.21 310.05 1151.75 313.54 1149.98L432.485 1089.47C434.269 1088.57 435.381 1086.75 435.381 1084.76V1049.43C435.381 1047.47 434.288 1045.71 432.562 1044.83Z" fill="#121214"/>
<path d="M576.492 956.784C574.977 959.009 572.024 959.814 569.569 958.548L507.891 926.731V924.603L586.235 884.194C587.903 883.331 588.958 881.605 588.958 879.725V847.467C588.958 843.574 584.854 841.042 581.363 842.807L462.4 903.315C460.616 904.216 459.504 906.038 459.504 908.032V943.359C459.504 945.315 460.597 947.08 462.323 947.962L556.662 995.946L556.623 996.023L576.511 956.803C576.511 956.803 576.473 956.803 576.473 956.784H576.492Z" fill="#121214" fill-opacity="0.5"/>
<path d="M697.949 784.945H666.688C664.847 784.945 663.159 785.981 662.335 787.63L633.529 844.437C633.529 844.437 633.548 844.456 633.567 844.475L667.513 861.678L702.59 792.502C704.335 789.049 701.823 784.945 697.949 784.945Z" fill="#121214" fill-opacity="0.5"/>
<path d="M717.664 1028.43C726.032 1028.43 732.815 1021.65 732.815 1013.28C732.815 1004.92 726.032 998.133 717.664 998.133C709.297 998.133 702.513 1004.92 702.513 1013.28C702.513 1021.65 709.297 1028.43 717.664 1028.43Z" fill="#121214" fill-opacity="0.5"/>
<path d="M761.814 909.739L667.475 861.755L667.513 861.678L633.51 844.437L556.643 996.023L521.565 1065.2C519.82 1068.65 522.333 1072.76 526.207 1072.76H557.468C559.309 1072.76 560.996 1071.72 561.821 1070.07L647.299 901.512C648.661 898.846 651.921 897.791 654.587 899.153L716.265 930.97V933.099L637.921 973.508C636.253 974.371 635.198 976.097 635.198 977.976V1010.23C635.198 1014.13 639.302 1016.66 642.792 1014.89L761.737 954.387C763.521 953.485 764.633 951.663 764.633 949.669V914.342C764.633 912.386 763.54 910.622 761.814 909.739Z" fill="#121214"/>
<path d="M905.744 1091.87C904.229 1094.1 901.275 1094.9 898.82 1093.63L837.143 1061.82V1059.69L915.487 1019.28C917.155 1018.42 918.21 1016.69 918.21 1014.81V982.553C918.21 978.66 914.106 976.129 910.615 977.893L791.651 1038.4C789.868 1039.3 788.755 1041.12 788.755 1043.12V1078.45C788.755 1080.4 789.849 1082.17 791.575 1083.05L885.913 1131.03L885.875 1131.11L905.763 1091.89C905.763 1091.89 905.725 1091.89 905.725 1091.87H905.744Z" fill="#121214" fill-opacity="0.5"/>
<path d="M1027.2 920.032H995.94C994.099 920.032 992.411 921.067 991.587 922.717L962.781 979.523C962.781 979.523 962.8 979.543 962.819 979.562L996.765 996.765L1031.84 927.588C1033.59 924.136 1031.07 920.032 1027.2 920.032Z" fill="#121214" fill-opacity="0.5"/>
<path d="M1091.07 1044.83L996.727 996.842L996.765 996.765L962.762 979.523L885.895 1131.11L850.817 1200.29C849.072 1203.74 851.584 1207.84 855.458 1207.84H886.719C888.56 1207.84 890.248 1206.81 891.073 1205.16L976.551 1036.6C977.913 1033.93 981.173 1032.88 983.839 1034.24L1045.52 1066.06V1068.19L967.173 1108.59C965.504 1109.46 964.449 1111.18 964.449 1113.06V1145.32C964.449 1149.21 968.554 1151.75 972.044 1149.98L1090.99 1089.47C1092.77 1088.57 1093.88 1086.75 1093.88 1084.76V1049.43C1093.88 1047.47 1092.79 1045.71 1091.07 1044.83Z" fill="#121214"/>
<path d="M1235 956.784C1233.48 959.009 1230.53 959.814 1228.07 958.548L1166.39 926.731V924.603L1244.74 884.194C1246.41 883.331 1247.46 881.605 1247.46 879.725V847.467C1247.46 843.574 1243.36 841.042 1239.87 842.807L1120.9 903.315C1119.12 904.216 1118.01 906.038 1118.01 908.032V943.359C1118.01 945.315 1119.1 947.08 1120.83 947.962L1215.17 995.946L1215.13 996.023L1235.01 956.803C1235.01 956.803 1234.98 956.803 1234.98 956.784H1235Z" fill="#121214" fill-opacity="0.5"/>
<path d="M1356.45 784.945H1325.19C1323.35 784.945 1321.66 785.981 1320.84 787.63L1292.03 844.437C1292.03 844.437 1292.05 844.456 1292.07 844.475L1326.02 861.678L1361.09 792.502C1362.84 789.049 1360.33 784.945 1356.45 784.945Z" fill="#121214" fill-opacity="0.5"/>
<path d="M1376.17 1028.43C1384.54 1028.43 1391.32 1021.65 1391.32 1013.28C1391.32 1004.92 1384.54 998.133 1376.17 998.133C1367.8 998.133 1361.02 1004.92 1361.02 1013.28C1361.02 1021.65 1367.8 1028.43 1376.17 1028.43Z" fill="#121214" fill-opacity="0.5"/>
<path d="M1420.32 909.739L1325.98 861.755L1326.02 861.678L1292.01 844.437L1215.15 996.023L1180.07 1065.2C1178.32 1068.65 1180.84 1072.76 1184.71 1072.76H1215.97C1217.81 1072.76 1219.5 1071.72 1220.32 1070.07L1305.8 901.512C1307.16 898.846 1310.43 897.791 1313.09 899.153L1374.77 930.97V933.099L1296.43 973.508C1294.76 974.371 1293.7 976.097 1293.7 977.976V1010.23C1293.7 1014.13 1297.81 1016.66 1301.3 1014.89L1420.24 954.387C1422.02 953.485 1423.14 951.663 1423.14 949.669V914.342C1423.14 912.386 1422.04 910.622 1420.32 909.739Z" fill="#121214"/>
<path d="M1564.25 1091.87C1562.73 1094.1 1559.78 1094.9 1557.32 1093.63L1495.65 1061.82V1059.69L1573.99 1019.28C1575.66 1018.42 1576.71 1016.69 1576.71 1014.81V982.553C1576.71 978.66 1572.61 976.129 1569.12 977.893L1450.16 1038.4C1448.37 1039.3 1447.26 1041.12 1447.26 1043.12V1078.45C1447.26 1080.4 1448.35 1082.17 1450.08 1083.05L1544.42 1131.03L1544.38 1131.11L1564.27 1091.89C1564.27 1091.89 1564.23 1091.89 1564.23 1091.87H1564.25Z" fill="#121214" fill-opacity="0.5"/>
<path d="M1685.7 920.032H1654.44C1652.6 920.032 1650.91 921.067 1650.09 922.717L1621.28 979.523C1621.28 979.523 1621.3 979.543 1621.32 979.562L1655.27 996.765L1690.35 927.588C1692.09 924.136 1689.58 920.032 1685.7 920.032Z" fill="#121214" fill-opacity="0.5"/>
<path d="M1749.57 1044.83L1655.23 996.842L1655.27 996.765L1621.27 979.523L1544.4 1131.11L1509.32 1200.29C1507.58 1203.74 1510.09 1207.84 1513.96 1207.84H1545.22C1547.06 1207.84 1548.75 1206.81 1549.58 1205.16L1635.05 1036.6C1636.42 1033.93 1639.68 1032.88 1642.34 1034.24L1704.02 1066.06V1068.19L1625.68 1108.59C1624.01 1109.46 1622.95 1111.18 1622.95 1113.06V1145.32C1622.95 1149.21 1627.06 1151.75 1630.55 1149.98L1749.49 1089.47C1751.28 1088.57 1752.39 1086.75 1752.39 1084.76V1049.43C1752.39 1047.47 1751.3 1045.71 1749.57 1044.83Z" fill="#121214"/>
<path d="M1893.5 956.784C1891.98 959.009 1889.03 959.814 1886.58 958.548L1824.9 926.731V924.603L1903.24 884.194C1904.91 883.331 1905.97 881.605 1905.97 879.725V847.467C1905.97 843.574 1901.86 841.042 1898.37 842.807L1779.41 903.315C1777.62 904.216 1776.51 906.038 1776.51 908.032V943.359C1776.51 945.315 1777.6 947.08 1779.33 947.962L1873.67 995.946L1873.63 996.023L1893.52 956.803C1893.52 956.803 1893.48 956.803 1893.48 956.784H1893.5Z" fill="#121214" fill-opacity="0.5"/>
<path d="M2078.82 909.739L1984.48 861.755L1984.52 861.678L1950.52 844.437L1873.65 996.023L1838.57 1065.2C1836.83 1068.65 1839.34 1072.76 1843.21 1072.76H1874.47C1876.32 1072.76 1878 1071.72 1878.83 1070.07L1964.31 901.512C1965.67 898.846 1968.93 897.791 1971.59 899.153L2033.27 930.97V933.099L1954.93 973.508C1953.26 974.371 1952.21 976.097 1952.21 977.976V1010.23C1952.21 1014.13 1956.31 1016.66 1959.8 1014.89L2078.74 954.387C2080.53 953.485 2081.64 951.663 2081.64 949.669V914.342C2081.64 912.386 2080.55 910.622 2078.82 909.739Z" fill="#121214"/>
</g>
</svg>
