<svg width="175" height="190" viewBox="0 0 175 190" fill="none" xmlns="http://www.w3.org/2000/svg">
<path d="M152.555 163.747L101.208 185.727C92.4547 189.473 82.5371 189.473 73.7839 185.727L22.437 163.747C9.71678 158.3 1.46948 145.849 1.46948 132.071V57.9289C1.46948 44.1515 9.70875 31.7 22.437 26.2529L73.7919 4.27301C82.5451 0.527161 92.4627 0.527161 101.216 4.27301L152.563 26.2529C165.283 31.7 173.53 44.1515 173.53 57.9289V132.071C173.53 145.849 165.291 158.3 152.563 163.747H152.555Z" fill="#F2F5FF"/>
<path d="M87.5 190C82.6255 190 77.743 189.025 73.2058 187.085L21.8589 165.105C8.57654 159.418 0 146.447 0 132.071V57.9287C0 43.5523 8.57654 30.5816 21.8589 24.9029L73.2058 2.91501C82.2882 -0.9746 92.7118 -0.9746 101.802 2.91501L153.149 24.8949C166.432 30.5816 175.008 43.5443 175.008 57.9207V132.063C175.008 146.439 166.432 159.41 153.149 165.089L101.802 187.069C97.257 189.017 92.3825 189.984 87.508 189.984L87.5 190ZM87.5 2.94696C83.019 2.94696 78.546 3.84149 74.3782 5.62257L23.0314 27.6025C10.8411 32.8259 2.96324 44.7264 2.96324 57.9287V132.071C2.96324 145.273 10.8411 157.174 23.0314 162.397L74.3782 184.377C82.7219 187.947 92.2862 187.947 100.63 184.377L151.977 162.397C164.167 157.174 172.045 145.273 172.045 132.071V57.9287C172.045 44.7264 164.167 32.8259 151.977 27.6025L100.622 5.62257C96.454 3.8335 91.973 2.94696 87.5 2.94696Z" fill="#025AFF"/>
</svg>
